<?xml version="1.0" encoding="utf-8"?>
<!-- Generator: Adobe Illustrator 16.0.3, SVG Export Plug-In . SVG Version: 6.00 Build 0)  -->
<!DOCTYPE svg PUBLIC "-//W3C//DTD SVG 1.1//EN" "http://www.w3.org/Graphics/SVG/1.1/DTD/svg11.dtd">
<svg version="1.1" id="Capa_1" xmlns="http://www.w3.org/2000/svg" xmlns:xlink="http://www.w3.org/1999/xlink" x="0px" y="0px"
	 width="276.789px" height="92.263px" viewBox="0 0 276.789 92.263" enable-background="new 0 0 276.789 92.263"
	 xml:space="preserve">
<g>
	<g>
		<path fill="#22559C" d="M44.551,75.423l-0.168,0.093l-0.017-0.144l0.068-0.25l0.143-0.992c0.1-0.577-0.482-1.427-0.577-2.995
			c-0.074-1.461,0.046-2.749,0.457-4.182c0.071,2.145,0.793,3.16,1.033,4.729l0.022,0.324v0.304l-0.022,0.318l-0.143,0.81v0.251
			l-0.12,0.206l-0.219,0.376l-0.168,0.343l-0.068,0.393l-0.146,0.303L44.551,75.423z"/>
		<path fill="#22559C" d="M44.839,74.288c0.217-1.198,0.074-2.424-0.091-3.872l-0.22-1.039l-0.075-0.672l-0.045-0.947
			 M51.308,25.704c0.513,0.662,1.024,1.329,1.565,1.957c0.882,1.001,1.88,0.981,2.151,1.135c0.513,0.305,0.938,0.682,1.406,1.067
			c0.148,0.414,0.114,0.813,0.371,1.166l0.229,0.237l0.268,1.032c-0.257-0.243-0.511-0.485-0.77-0.727
			c-0.077-0.673-0.111-0.904-0.813-1.167c-1.287-0.451-0.967,1.292,0.148,1.5c0.214,0.029,0.451-0.096,0.647-0.162l0.842,0.881
			c0.005-0.199,0.077-0.407,0.148-0.593c-0.317-0.838-0.662-1.528-0.402-2.407c0.097-0.203,0.168-0.411,0.262-0.611
			c0.921-1.911,1.187-2.989,0.944-5.116l-0.111-1.646c-0.51,1.603-1.34,3.06-1.354,4.785c-0.023,0.898,0.077,1.774,0.04,2.642
			c-0.114-0.904-0.16-1.902-0.394-2.769c-0.441-1.572-1.583-2.433-2.649-3.594c0.225,0.999,0.482,1.78,0.907,2.718
			c0.491,1.018,1.158,1.879,1.6,2.912c0.177,0.376,0.266,0.759,0.391,1.169c-0.67-1.221-1.574-2.675-2.911-3.274
			C52.987,26.474,52.141,26.086,51.308,25.704"/>
		<path fill="#22559C" d="M61.663,41.318l-0.022-0.368l-0.146-0.439l-0.193-0.439l-0.043-0.322l0.023-0.579l0.213-0.621l-0.148-0.14
			l-0.137,0.345l-0.196,0.371v-0.691c0.196-1.32,0.53-2.589,0.679-3.901c0.21-2.099-0.126-3.736-0.845-5.744
			c-0.385,1.937-1.104,5.122-0.913,5.604l0.1,0.328v0.439l0.285,0.805l0.12,0.53l0.097,1.084l0.117,0.667l-0.359-0.479l-0.331-0.764
			l-0.702-0.921l-0.67-0.807l-0.719-0.791l-0.935-0.875l-0.916-0.71l-0.716-0.442l-1.229-0.85l0.99,1.585l0.861,1.318l0.745,1.015
			l0.864,0.784l0.719,0.391l0.983,0.531l0.647,0.417l0.317,0.416l0.214,0.553l0.068,0.277l0.243,0.716l-0.385-0.16l-0.551-0.16
			h-0.311l-0.048,0.085l0.236,0.049l0.411,0.14l0.457,0.185l0.382,0.346l0.362,0.736l0.065,0.438v0.12l0.148,0.205l0.1,0.092
			L61.663,41.318z"/>
		<path fill="#22559C" d="M58.785,38.617c-0.602,0-1.106,0.371-1.106,0.833c0,0.459,0.504,0.855,1.106,0.855
			c0.602,0,1.084-0.374,1.127-0.81l-0.243-0.068l-0.239-0.051l0.051-0.085h0.308l0.1,0.02C59.815,38.92,59.335,38.617,58.785,38.617
			 M60.462,38.806l-0.213-0.074l-0.648-0.599c-0.171-0.137-0.359-0.257-0.553-0.371c-2.998-0.918-4.922-2.122-6.985-4.284
			l1.823,0.524l1.754,0.577l0.385,0.068l0.645,0.878l0.867,0.784l0.719,0.391l0.986,0.531l0.314,0.211l0.166,0.182l0.168,0.3
			l0.19,0.328l0.191,0.297l0.12,0.022l0.026,0.045L60.462,38.806z M57.246,29.183c0.77,1.843,1.802,3.548,2.593,5.374l0.196,0.231
			v0.368l0.285,0.81l0.117,0.53l0.097,1.084l0.117,0.673l-0.359-0.491l-0.334-0.758l-0.696-0.924l-0.673-0.804l-0.716-0.791
			l-0.262-0.226l-0.077-0.416l-0.382-1.113l-0.171-0.71l0.029-0.487l0.048-0.99L57.246,29.183z M62.045,41.087l-0.311,0.69v0.188
			l-0.194-0.279l0.026-0.046l0.026,0.046l0.068-0.368V41.25l0.074-0.368c0.168-0.787,0.049-1.552,0.263-2.31
			c0.579-2.007,1.851-3.736,2.592-5.653C64.975,36.218,63.748,38.295,62.045,41.087"/>
		<path fill="#22559C" d="M62.527,50.109l-0.049-1.062l0.049-0.879l0.168-1.037l0.143-1.408l-0.026-0.992l-0.045-0.713l-0.339-0.67
			l-0.334-0.761l-0.334-0.576l-0.527-0.833l-0.365-0.622l-0.26-0.599l-0.12,0.508l0.043,0.416l0.077,0.642l0.097,0.58l0.191,0.667
			l0.214,0.713l0.191,0.881l0.216,0.761l0.191,0.741l0.216,0.827l0.168,0.901l0.123,0.736l0.022,0.947l0.026,0.992l0.117-0.137
			L62.527,50.109z"/>
		<path fill="#22559C" d="M62.551,43.557l-0.049-0.462l0.191-0.645l0.216-0.391l-0.142-0.071l-0.166,0.205l-0.174,0.394l-0.14,0.394
			l0.14,0.365L62.551,43.557z"/>
		<path fill="#22559C" d="M63.437,40.303c-0.385-0.166-0.886,0.186-1.126,0.761c-0.191,0.531-0.095,1.084,0.216,1.27l0.068-0.14
			l0.171-0.205l0.142,0.068l-0.191,0.365c0.359,0.051,0.792-0.296,1.007-0.804C63.941,41.039,63.825,40.44,63.437,40.303
			 M61.13,43.648l-0.354-0.553c-0.624-0.924-1.44-1.64-2.133-2.516c0.428,1.477,0.745,2.84,1.315,4.27l0.168,0.457l0.65,0.697
			l0.408,0.878l0.431,0.734l0.168,0.485l0.168,0.76l0.24,1.248l0.048,0.16l0.026-0.022l-0.026-0.97l-0.022-0.947l-0.123-0.736
			l-0.166-0.901l-0.219-0.827l-0.188-0.741l-0.219-0.761L61.13,43.648z"/>
		<path fill="#22559C" d="M57.177,42.194c1.104,0.924,1.894,1.939,2.906,3.05l0.69,0.753l0.408,0.879l0.428,0.74l0.176,0.485
			l0.163,0.765l0.243,1.243l0.051,0.16l0.023-0.022v0.022l0.117-0.137l0.143-0.023l0.168-0.068l1.229-1.248
			c1.914-2.055,5.351-2.836,8.299-3.435c-3.383,3.736-6.625,3.479-7.079,3.554c-0.864,0.16-1.437,0.462-2.087,0.992l-0.023,0.273
			l-0.075,0.296l-0.433,0.605l-0.259,0.456l-0.22,0.582l-0.12,0.439v0.416l-0.166,0.183l-0.193-0.273l0.126-0.508v-0.742
			l0.017-0.272l0.146-0.331l0.191-0.16l-0.097-0.229v-0.485l-0.163-0.432l-0.026-0.029v-0.092l-0.067-0.092l-0.483-0.621
			l-0.864-0.975l-0.576-0.641L59.695,47.2l-0.454-0.644C58.375,45.313,57.679,43.834,57.177,42.194"/>
		<path fill="#22559C" d="M55.663,45.421l0.983,0.303l1.369,0.69l1.155,0.627l0.599,0.228l0.576,0.651l0.868,0.969l0.476,0.616
			l0.097,0.211l0.166,0.438v0.485l0.094,0.229l-0.191,0.16l-0.146-0.713l-0.282-0.395l-0.744-0.484l-0.648-0.479L59.242,48.7
			l-0.673-0.394l-0.599-0.228l-0.46-0.371l-0.544-0.484l-0.439-0.485l-0.457-0.623L55.663,45.421z M67.493,41.087
			c-0.405,1.871-0.499,2.977-1.46,4.727c-0.482,0.742-1.13,1.454-1.657,2.145l-0.501,0.537l-0.411,0.41l-0.268,0.445l-0.089,0.268
			l-0.413,0.422l-0.168,0.068l-0.043-1.062l0.043-0.879l0.168-1.037l0.148-1.408l-0.026-0.992l-0.026-0.417l0.146-0.459l0.171-0.485
			l0.329-0.762l0.365-0.693l0.385-0.807l0.673-1.062l-0.052,0.667l-0.117,0.947v0.576l-0.103,0.833l-0.186,0.97l-0.268,1.015
			l-0.217,0.826l-0.237,0.674l-0.216,0.712l-0.24,0.6l-0.214,0.484l-0.22,0.445l-0.068,0.319v0.234l-0.052,0.388l0.12-0.017
			l0.072-0.309l0.074-0.342l0.143-0.372l0.071-0.233l0.197-0.434l0.263-0.554c0.12-0.393,0.245-0.741,0.382-1.128l0.41-0.719
			C65.217,44.064,66.292,42.353,67.493,41.087 M63.195,50.686c-0.382,0.319-0.545,0.805-0.399,1.152l0.091-0.063l0.074,0.155
			c0,0-0.051,0.051-0.074,0.068v0.028c0.308,0.319,0.964,0.274,1.44-0.137c0.482-0.411,0.624-1.021,0.311-1.34
			C64.327,50.201,63.679,50.27,63.195,50.686"/>
		<path fill="#22559C" d="M62.96,51.93c-0.025,0.051-0.268,0.278-0.268,0.278l-0.262,0.279l-0.214,0.32l-0.219,0.256v0.509
			l-0.02,0.438l-0.074,0.205l-0.143,0.229l-0.1,0.234l-0.068,0.393l-0.049,0.297l0.216-0.228l0.314-0.372l0.379-0.553l0.454-0.599
			c1.295-1.706,3.847-2.909,6.003-3.901l0.214-0.092c-0.933,1.176-1.771,2.402-3.021,3.252c-1.01,0.713-1.967,1.176-3.094,1.683
			l-0.268,0.12l-0.337,0.228l-0.237,0.114l-0.217,0.257l-0.191,0.184l-0.025,0.232l-0.097,0.16l-0.12,0.166l-0.12,0.204
			l-0.117,0.251l-0.055,0.189l0.171-0.12l0.168-0.229l0.217-0.183l0.025,0.183l0.024,0.159l-0.289,0.258l-0.217,0.137L61.13,57.08
			l-0.091,0.137v0.119l-0.072,0.297l-0.052,0.228l-0.045,0.206l-0.12,0.212l-0.143,0.251l-0.171,0.278l-0.167,0.394l-0.189,0.32
			l-0.168,0.393l-0.243,0.44l-0.119,0.188l-0.545,1.032l-0.296,0.536l-0.499,0.896l-0.313,0.508l-0.286,0.234v-0.046l0.191-0.485
			l0.334-0.645l0.239-0.673l0.171-0.416l0.097-0.342l0.091-0.092l0.647-1.294l0.434-0.902l0.168-0.371l0.051-0.484l0.14-0.233
			l0.197-0.178l0.065-0.621l-0.117-0.398l-0.146-0.344l-0.168-0.233l-0.14-0.137l-0.097-0.182l0.143-0.053l0.188,0.053l0.026,0.204
			l0.168,0.257l0.142,0.273l0.126,0.303l0.237-0.531l0.099-0.324l0.171-0.53l0.041-0.371l0.074-0.576l0.025-0.456l-0.385-0.439
			l-0.437-0.399l-0.382-0.479l-0.382-0.394l-0.362-0.394l-0.333-0.485l-0.405-0.506l-0.336-0.435l-0.337-0.416l-0.362-0.484
			l-0.291-0.485l-0.453-0.879l-0.266-0.461l-0.14-0.343l-0.239-0.399l-0.077-0.274l0.482,0.531l0.382,0.325l0.411,0.318l0.356,0.274
			l0.534,0.4l0.379,0.272l0.481,0.251l0.434,0.372l0.385,0.438l0.214,0.257l0.385,0.463l0.308,0.479l0.214,0.416l0.239,0.394
			l0.151,0.439l0.091,0.324l0.048,0.252h0.049v0.022l0.193,0.279l0.171-0.188v-0.131l0.066-0.028l0.219-0.349l0.262-0.296
			l0.214-0.233l0.197-0.16L62.96,51.93z"/>
		<path fill="#22559C" d="M61.067,55.277l-0.096-0.343l-0.1-0.393l-0.24-0.485l-0.382-0.576l-0.363-0.508l-0.456-0.508l-0.359-0.348
			l-0.286-0.251l-0.433-0.303l-0.502-0.37l-0.362-0.206l-0.576-0.302l-0.362-0.183l-0.43-0.273l-0.431-0.399l-0.24-0.137
			l0.214,0.319l0.216,0.444l0.362,0.646l0.336,0.599l0.431,0.507l0.382,0.485l0.599,0.548l0.411,0.331l0.619,0.462l0.627,0.342
			l0.194,0.143l0.602,0.365l0.24,0.229l0.233,0.649l0.151-0.433V55.277z"/>
		<path fill="#22559C" d="M59.815,54.679c-0.405-0.463-0.983-0.576-1.321-0.258c-0.311,0.326-0.239,0.947,0.146,1.388
			c0.408,0.462,1.007,0.575,1.324,0.256c0.022-0.028,0.022-0.028,0.042-0.045V55.99l-0.14-0.137l-0.097-0.188l0.143-0.047
			l0.191,0.047l0.02,0.143C60.249,55.488,60.123,55.021,59.815,54.679"/>
		<path fill="#22559C" d="M65.838,60.999c-1.246,1.294-2.786,2.565-4.586,3.303l-1.483,0.576c-0.984,0.388-2.022,0.529-3.026,0.809
			l-0.411,0.229L56.05,66.4l-0.265,0.393l-0.405,0.485l-0.627,0.457l0.022-0.041l0.097-0.507l0.045-0.166l0.24-0.113l0.168-0.508
			l0.12-0.394L55.4,65.545l-0.097-0.348l-0.217-0.274l-0.045-0.16l0.143-0.091l0.197,0.274l0.117,0.251l0.117,0.279l0.049,0.553
			l0.096-0.394l0.146-0.183l0.311-0.205l0.069-0.508v-0.438l-0.286-0.554c-0.958-0.925-1.488-1.894-1.799-3.16
			c-0.356-1.432-0.405-2.796-0.434-4.25l0.078-0.529c0.405,1.203,1.055,2.634,1.82,3.689l0.145,0.165l0.022,0.462l0.239,1.13
			l0.315,0.689l0.045,0.44l0.054,0.735l0.066,0.765l-0.045,0.878v0.395l-0.074,0.227l0.12,0.138l0.431-0.53v-0.303l0.049-0.067
			l0.339-0.668l0.242-0.205l0.286-0.234l0.313-0.508l0.499-0.896c0.576-0.969,1.155-1.865,1.876-2.772
			c1.221-1.454,2.542-2.811,3.882-4.175c-0.545,1.757-1.03,3.115-2.111,4.614c-0.744,1.038-1.46,1.797-2.492,2.563
			c-0.502,0.393-0.956,0.78-1.515,1.151l-0.431,0.348l-0.431,0.394l-0.071,0.273l-0.146,0.372l0.239-0.138l0.386-0.257
			c0.864-0.827,1.874-1.433,2.955-2.008C62.356,61.671,63.941,61.415,65.838,60.999"/>
		<path fill="#22559C" d="M58.016,54.633l0.24,0.712l0.288,0.72l0.263,0.833l0.1,0.684l0.045,0.697v1.454l-0.119,0.713l-0.289,1.038
			l-0.168,0.416l-0.239,0.668l-0.334,0.645l-0.191,0.49v0.046l-0.245,0.211l-0.334,0.662l-0.048,0.073V64.46l0.362-1.014v-0.396
			l0.12-0.182l0.148-0.673v-1.261l-0.077-1.386l-0.097-0.394l0.068-0.462l0.123-0.787l0.194-0.964l0.143-0.947l0.048-0.628V54.633z"
			/>
		<path fill="#22559C" d="M55.928,54.125l0.262,0.896l0.359,1.13l0.337,1.089l0.339,0.992l0.12,0.479l0.191,0.839l0.071,1.386v1.261
			l-0.143,0.673l-0.263,0.463l-0.174,0.559l-0.045,0.524v0.582l-0.434,0.524l-0.12-0.138l0.243-0.9l0.168-0.758l-0.074-0.605
			l-0.094-0.438l-0.189-0.548l-0.41-0.879l-0.243-1.13L55.806,58.9V57.56l0.074-1.523L55.928,54.125z M55.161,63.605
			c-0.408-0.525-1.059-0.759-1.466-0.485c-0.382,0.279-0.382,0.947,0.026,1.501c0.407,0.536,1.081,0.741,1.465,0.461h0.023
			l-0.123-0.159l-0.045-0.16l0.145-0.091l0.166,0.251C55.568,64.598,55.52,64.05,55.161,63.605 M54.753,68.015h-0.048v0.091
			l-0.166,0.37l0.308,0.068l0.577,0.075l1.104,0.114l1.417,0.085l1.272,0.053c1.658-0.212,3.434-0.463,4.943-1.153
			c-1.777-0.256-3.171-0.673-5.211-0.673C57.488,67.136,56.119,67.53,54.753,68.015"/>
		<path fill="#22559C" d="M61.854,71.5c-0.696-0.599-1.412-1.25-2.208-1.705l-1.172-0.651l-0.459-0.325h-0.072l-1.414-0.085
			l-1.106-0.114l-0.574-0.075l-0.311-0.068l-0.055,0.115l0.388,0.256l0.599,0.508c1.246,0.599,2.373,1.084,3.716,1.454
			C60.083,71.038,60.971,71.312,61.854,71.5"/>
		<path fill="#22559C" d="M55.135,65.521l-0.051,0.621l-0.094,0.6l-0.117,0.44l-0.168,0.923l-0.286,0.645l-0.265,0.604l-0.311,0.691
			l-0.269,0.393c-0.357,0.553-0.767,0.901-1.224,1.363l-0.457,0.393l-0.644,0.412l-0.479,0.365l-0.387,0.239l-0.428,0.182
			l-0.317,0.16l-0.333,0.319l-0.291,0.142l-0.188,0.048l-0.405-0.093l-0.1-0.279l0.074-0.325l0.213-0.13l0.311-0.675l0.143-0.645
			v-0.484l0.051-0.735v-0.353l0.333-0.806l0.459-1.151l0.309-1.313l-0.334,0.297l-0.507,0.622l-0.168,0.188l0.028-0.417
			c0.311-1.454,1.004-2.634,1.631-3.969l0.236-0.696l-0.025,0.878c0,1.021,0.077,2.031,0,3.069l-0.068,0.599l-0.237,1.317
			l-0.267,1.289l-0.357,0.765l-0.217,0.531l-0.34,0.461L49.357,72.4l-0.265,0.462l-0.243,0.434l-0.022,0.166l0.188,0.022
			l0.313-0.211l0.411-0.302l0.286-0.343l0.433-0.69l0.334-0.582l0.527-0.734l0.34-0.531l0.476-0.599l0.507-0.6l0.362-0.559
			C53.795,67.369,54.511,66.583,55.135,65.521"/>
		<path fill="#22559C" d="M59.866,72.305c-1.158-0.184-2.33-0.343-3.481-0.44c-1.367-0.091-2.712-0.063-4.056-0.046l-0.428,0.376
			l-0.65,0.412l-0.382,0.302L51.368,73l0.65,0.068l0.718,0.021c1.417,0.076,2.832-0.045,4.272-0.233
			C57.97,72.726,58.928,72.56,59.866,72.305 M57.391,76.143c-0.961-0.747-2.04-1.415-3.12-2.013c-0.67-0.371-1.269-0.6-2.013-0.827
			l-0.674-0.234l-0.767-0.113l-0.046,0.017l-0.384,0.233l-0.097,0.046l0.071,0.091l0.576,0.417c1.009,0.582,1.942,1.203,3.046,1.591
			C55.112,75.767,56.236,75.84,57.391,76.143 M48.413,73.969l-0.095-0.279l0.078-0.325l0.213-0.13l0.097-0.189l-0.097,0.045
			l-0.767,0.463l-1.032,0.582l-0.029,0.017l-0.043,0.046l-1.249,0.81l0.02-0.021l-0.305,0.176l0.119-0.428v-0.051l-0.074,0.022
			l-0.454,0.205l-0.025,0.097l-0.146,0.297l-0.069,0.114l-0.174,0.098l-0.02-0.138l0.071-0.256l0.023-0.092l-0.051,0.023
			l-0.645,0.433l-0.958,0.416l-0.458,0.211l-0.551,0.144l-0.841,0.411l-0.91,0.461l-0.625,0.229l-0.405,0.144l-0.604,0.021v0.086
			l0.961,0.376l0.333-0.119l0.727-0.183l0.597-0.182l0.382-0.189l0.553-0.068l0.291-0.205l0.497-0.257l-0.111-0.022h-0.293
			l-0.072-0.206h0.437l0.237,0.023l0.045-0.068l0.294-0.113l0.454-0.121l0.288-0.068l0.457-0.183l0.022-0.028l-0.359-0.092
			l0.216-0.136l0.24-0.115l0.214-0.067l0.236-0.023l-0.045,0.107l0.407-0.039h0.171l0.379-0.211l0.148-0.159l0.408-0.022h0.887
			V75.03l-0.288,0.023l-0.648-0.092l0.309-0.211l0.316-0.16l0.379-0.137l-0.088-0.113l0.088-0.166l0.197,0.022l0.14,0.091
			l0.294-0.153l0.43-0.148L48.413,73.969z M53.047,63.354c-0.647,1.244-1.292,2.465-1.796,3.76l-0.217,0.514l-0.025,0.017
			l-0.24,1.317l-0.265,1.289l-0.24,0.536l0.028,0.434l-0.219,0.582l-0.336,0.548l-0.411,0.393l-0.233,0.114l-0.243,0.439
			l-0.022,0.166l0.191,0.022l0.308-0.211l0.411-0.297l0.288-0.348l0.433-0.696l0.331-0.57l0.533-0.74l0.334-0.531l0.482-0.599
			l0.262-0.325l0.097-0.434C53.024,66.931,52.907,65.18,53.047,63.354L53.047,63.354z"/>
		<path fill="#22559C" d="M48.413,73.969l-0.095-0.279l0.078-0.325l0.213-0.13l0.097-0.189l-0.097,0.045l-0.767,0.463l-1.032,0.582
			l-0.029,0.017l-0.043,0.046l-1.249,0.81l0.02-0.021l-0.305,0.176l0.119-0.428v-0.051l-0.074,0.022l-0.454,0.205l-0.025,0.097
			l-0.146,0.297l-0.069,0.114l-0.174,0.098l-0.02-0.138l0.071-0.256l0.023-0.092l-0.051,0.023l-0.645,0.433l-0.958,0.416
			l-0.458,0.211l-0.551,0.144l-0.841,0.411l-0.91,0.461l-0.625,0.229l-0.405,0.144l-0.604,0.021v0.086l0.961,0.376l0.333-0.119
			l0.727-0.183l0.597-0.182l0.382-0.189l0.553-0.068l0.291-0.205l0.497-0.257l-0.111-0.022h-0.293l-0.072-0.206h0.437l0.237,0.023
			l0.045-0.068l0.294-0.113l0.454-0.121l0.288-0.068l0.457-0.183l0.022-0.028l-0.359-0.092l0.216-0.136l0.24-0.115l0.214-0.067
			l0.236-0.023l-0.045,0.107l0.407-0.039h0.171l0.379-0.211l0.148-0.159l0.408-0.022h0.887V75.03l-0.288,0.023l-0.648-0.092
			l0.309-0.211l0.316-0.16l0.379-0.137l-0.088-0.113l0.088-0.166l0.197,0.022l0.14,0.091l0.294-0.153l0.43-0.148L48.413,73.969z
			 M53.047,63.354c-0.647,1.244-1.292,2.465-1.796,3.76l-0.217,0.514l-0.025,0.017l-0.24,1.317l-0.265,1.289l-0.24,0.536
			l0.028,0.434l-0.219,0.582l-0.336,0.548l-0.411,0.393l-0.233,0.114l-0.243,0.439l-0.022,0.166l0.191,0.022l0.308-0.211
			l0.411-0.297l0.288-0.348l0.433-0.696l0.331-0.57l0.533-0.74l0.334-0.531l0.482-0.599l0.262-0.325l0.097-0.434
			C53.024,66.931,52.907,65.18,53.047,63.354L53.047,63.354z"/>
		<path fill="#22559C" d="M50.216,67.067l-0.309,1.318l-0.459,1.151l-0.479,1.153l-0.308,0.694l-0.508,0.714l-0.604,0.97
			l-0.428,0.598l-0.148,0.229l-0.237,0.302l-1.249,0.81l0.025-0.021l0.146-0.097l0.333-0.548l0.193-0.327l0.431-0.581l0.337-0.593
			l0.313-0.856l0.068-0.951l0.174-0.713v-0.092l0.04-0.091l0.63-0.736l0.648-0.764l0.547-0.646l0.507-0.622L50.216,67.067z"/>
		<path fill="#22559C" d="M47.888,65.521c0.026,1.432-0.116,2.813-0.382,4.222v0.576l-0.171,0.713l-0.071,0.951l-0.311,0.856
			l-0.337,0.599l-0.431,0.575l-0.191,0.327l-0.336,0.553l-0.457,0.273l0.117-0.434l0.028-0.536v-0.759l0.141-0.81l0.076-0.646
			l0.095-0.992l0.071-0.553C46.114,68.688,47.149,67.183,47.888,65.521 M47.674,74.197l0.382,0.257
			c1.391,0.205,2.281,0.16,3.505,0.85c1.366,0.742,2.518,1.854,3.881,2.584c-1.6-0.068-3.089-0.53-4.574-1.129
			c-1.181-0.463-2.137-1.313-3.097-2.1l-0.294-0.205l-0.088-0.113l0.088-0.166L47.674,74.197z M53.575,78.259
			c-1.055-0.689-2.592-1.409-3.833-1.78c-2.265-0.639-3.913-0.508-4.563-0.661l-0.191-0.051l0.065-0.206l-0.234,0.023l-0.217,0.067
			l-0.237,0.115l-0.223,0.136l0.434,0.12l0.476,0.183c0.676,0.257,2.308,1.296,4.583,1.569C50.957,77.939,52.3,77.962,53.575,78.259
			 M42.272,76.553h0.434l0.24,0.018l0.219,0.098l0.237,0.113l0.123,0.074v0.068l-0.094,0.018l-0.197-0.046l-0.191-0.063
			l-0.194-0.051l-0.213-0.022h-0.291L42.272,76.553z"/>
		<path fill="#22559C" d="M44.793,76.832c-0.482-0.398-1.126-0.438-1.44-0.096l0.048,0.045l0.123,0.068v0.074l-0.094,0.023
			l-0.197-0.052c-0.143,0.371,0,0.855,0.411,1.203c0.479,0.411,1.149,0.463,1.46,0.115C45.415,77.849,45.27,77.243,44.793,76.832
			 M54.705,70.364l-0.1,0.165l-0.262-0.068l-0.24-0.022h-0.217l-0.211-0.022h-0.074l0.168-0.279l0.192,0.022l0.236,0.022
			l0.171,0.046l0.237,0.092L54.705,70.364z"/>
		<path fill="#22559C" d="M55.209,69.674c-0.553-0.092-1.055,0.121-1.226,0.485l0.217,0.022l0.165,0.046l0.24,0.092l0.1,0.045
			l-0.1,0.165l-0.26-0.068l-0.239-0.022h-0.194c-0.023,0.463,0.411,0.896,1.01,0.992c0.622,0.115,1.198-0.205,1.294-0.69
			C56.287,70.25,55.834,69.766,55.209,69.674 M48.969,81.743l-0.411-0.371l-0.359-0.228l-0.405-0.318l-0.242-0.234l-0.24-0.394
			l-0.237-0.229l-0.388-0.302l-0.191-0.052L46.134,79.6l-0.476-0.113l0.068,0.249l0.097,0.463l0.362,0.439l0.576,0.507l0.285,0.046
			l0.628,0.092l0.501,0.211L48.969,81.743z"/>
		<path fill="#22559C" d="M41.702,79.114l-0.193,0.411l-0.653-0.184l-1.583-0.53l-0.719-0.229l-0.117-0.227l-0.025-0.349
			l-0.025-0.257l0.025-0.143l1.007,0.399l0.388,0.159l0.311,0.189c0.502,0.113,1.027,0.25,1.558,0.393l0.171,0.086L41.702,79.114z
			 M45.775,79.503l-0.12-0.017l0.074,0.249l0.097,0.463l0.362,0.439l0.573,0.507h0.026h-0.026l-0.311-0.091l-1.42-0.485
			l-1.369-0.393c0.154-0.365,0.386-0.65,0.608-0.896l0.217,0.113l0.451,0.109h0.456l0.336-0.017L45.775,79.503z"/>
		<path fill="#22559C" d="M47.623,81.024l-0.214-0.387l-0.214-0.257l-0.339-0.212l-0.453-0.222l-0.288-0.12h-0.166v0.143l0.14,0.251
			l0.145,0.206l0.213,0.234l0.334,0.204l0.413,0.144l0.237,0.016H47.623z M47.768,83.957c-0.308-0.667-0.887-0.896-1.435-1.289
			c-0.146-0.092-0.219-1.198-0.413-1.797l-0.89-0.303l-1.292-0.37l-0.071-0.022l-0.266,0.644l-0.12,0.371
			c0.334,0.484,0.334,1.317,0.477,1.917c0.122,0.462,0.89,0.832,1.061,1.917c0.117-0.377,0.864-0.902,0.91-1.272
			C46.402,83.82,47.141,83.729,47.768,83.957"/>
		<path fill="#22559C" d="M42.153,83.66l0.12-0.068l0.456-0.765l0.382-1.174l0.291-0.834l0.259-0.644
			c0.154-0.371,0.386-0.645,0.608-0.896c0.022-0.023,0.022-0.023,0.042-0.052c0.388-0.251,0.647-0.183,0.958,0.274l-0.091-0.344
			c-0.074-0.302-0.773-0.387-1.106-0.387c-0.602,0-0.981-0.097-1.557-0.234c-0.336-0.068-0.454-0.182-0.599,0.138l-0.075,0.165
			l-0.14,0.273l-0.239,0.53c-0.194,0.508-0.653,1.318-0.676,1.38c-0.025,0.166,0,0.326-0.12,0.416l-0.12,0.076l0.286,0.548
			l0.291,0.644l0.36,0.542l0.168,0.273l0.237,0.046l0.362,0.046L42.153,83.66z"/>
		<path fill="#22559C" d="M39.175,78.772c0.408,0.963,0.963,1.865,1.32,2.623l0.339,0.674l0.288,0.644l0.36,0.531l0.168,0.274
			l0.237,0.051l0.385,0.046l-0.143,0.09c-0.524,0.252-0.744,0.115-1.295,0.023c-0.627-0.097-1.135,0.319-1.465-0.279
			c-0.337-0.484-1.104-1.448-1.104-1.683c-0.071-0.879-0.216-1.729-0.265-2.607l0.194,0.023h0.266l0.19-0.097l0.097-0.16
			l-0.097-0.177l-0.1-0.171l0.411,0.12L39.175,78.772z"/>
		<path fill="#22559C" d="M39.175,77.426l-0.045-0.183l-0.24-0.256l-0.24-0.155l-0.263-0.027l-0.293-0.114h-0.333l-0.285-0.092
			l-0.194-0.046l-0.168,0.046l-0.336,0.325l-0.069,0.298l-0.051,0.342v0.348l0.071,0.303l0.1,0.364l0.137,0.233l0.296,0.183
			l0.402,0.165l0.24-0.022l0.291,0.046h0.266l0.19-0.097l0.097-0.16l-0.097-0.183l-0.217-0.387l-0.023-0.349l-0.023-0.257
			l0.023-0.256l0.168-0.252l0.236-0.021l0.146,0.045L39.175,77.426z"/>
		<path fill="#22559C" d="M37.33,76.365v0.188h-0.052l0.052-0.348l0.022-0.017L37.33,76.365z M38.722,76.873l-0.074-0.041
			l-0.26-0.027l-0.293-0.114h-0.333l-0.188-0.068l-0.029-0.434l0.029-0.194l0.043-0.045l0.17-0.6
			c0.334-1.13,0.625-2.378,0.884-3.646c0.025-0.158,0.174-0.273,0.388-0.348c0.792-0.205,2.424-0.639,2.735-0.713
			c0.236-0.045,0.336-0.045,0.453,0.143c0.294,0.457,0.864,0.987,1.278,1.29c0.502,0.342,0.571,2.075,0.237,2.515
			c-0.431,0.553-0.815,0.874-1.366,1.29l-0.366,0.308l-0.236,0.062l-0.841,0.418l-0.913,0.461l-0.547,0.183l0.599-0.319l0.576-0.302
			l0.476-0.274l0.34-0.166l0.624-0.41l0.411-0.324L42.8,75.31l0.336-0.324l0.456-0.486l0.12-0.416l0.097-0.507l-0.071-0.531
			l-0.146-0.393l-0.191-0.279l-0.291-0.093l-0.476,0.047l-0.651,0.325l-0.55,0.251l-0.55,0.331l-0.411,0.553l-0.434,0.804
			l-0.547,0.993l-0.337,0.666L38.722,76.873z"/>
		<path fill="#22559C" d="M37.33,76.365v0.188h-0.052l0.052-0.348l0.022-0.017L37.33,76.365z M38.722,76.873l-0.074-0.041
			l-0.26-0.027l-0.293-0.114h-0.333l-0.188-0.068l-0.029-0.434l0.029-0.194l0.043-0.045l0.17-0.6
			c0.334-1.13,0.625-2.378,0.884-3.646c0.025-0.158,0.174-0.273,0.388-0.348c0.792-0.205,2.424-0.639,2.735-0.713
			c0.236-0.045,0.336-0.045,0.453,0.143c0.294,0.457,0.864,0.987,1.278,1.29c0.502,0.342,0.571,2.075,0.237,2.515
			c-0.431,0.553-0.815,0.874-1.366,1.29l-0.366,0.308l-0.236,0.062l-0.841,0.418l-0.913,0.461l-0.547,0.183l0.599-0.319l0.576-0.302
			l0.476-0.274l0.34-0.166l0.624-0.41l0.411-0.324L42.8,75.31l0.336-0.324l0.456-0.486l0.12-0.416l0.097-0.507l-0.071-0.531
			l-0.146-0.393l-0.191-0.279l-0.291-0.093l-0.476,0.047l-0.651,0.325l-0.55,0.251l-0.55,0.331l-0.411,0.553l-0.434,0.804
			l-0.547,0.993l-0.337,0.666L38.722,76.873z"/>
		<path fill="#22559C" d="M41.457,72.908h0.026c0.405,0.229,0.501,0.919,0.188,1.222c-0.616,0.553-1.221,1.151-1.917,1.614
			l-0.265,0.188l-0.217,0.114l-0.117,0.204l-0.433,0.623l0.168,0.119l0.24,0.251l0.025,0.12l0.021,0.063l-0.214-0.159l-0.143-0.045
			l-0.24,0.021l-0.119,0.183l0.19,0.097l0.356-0.021l0.417-0.138l0.066-0.052l0.602-0.319l0.576-0.302l0.476-0.274l0.34-0.166
			l0.624-0.41l0.411-0.324L42.8,75.31l0.336-0.331l0.456-0.479l0.12-0.416l0.097-0.507l-0.071-0.531l-0.146-0.393l-0.191-0.274
			l-0.288-0.098l-0.479,0.052l-0.651,0.32L41.457,72.908z M36.036,76.046l-0.171-0.439c-0.596-0.924-1.03-1.803-1.865-2.562v-0.073
			l-0.074-0.599l-0.123-0.759l-0.288-0.645l0.051-0.72c0.046-0.251,0.764-0.41,1.003-0.068l0.292,0.423l0.356,0.455l0.308,0.674
			l0.316,0.303l0.408,0.337l0.391,0.369l0.233,0.65l0.382,0.782l0.097,0.787l0.071,0.735l-0.094,0.668v0.188h-0.049l-0.168,0.046
			l-0.096,0.092l-0.431-0.251L36.036,76.046z"/>
		<path fill="#22559C" d="M37.017,76.69l-0.428-0.251l-0.725-0.537c-1.059-0.924-1.68-1.448-1.869-2.857v-0.073l-0.071-0.594
			l-0.123-0.764l-0.288-0.645c0-0.252,0.025-0.485,0.048-0.72c0.049-0.251,0.767-0.41,1.006-0.068l0.292,0.417l0.356,0.461
			l0.311,0.669l0.313,0.302l0.408,0.348l0.382,0.364l0.24,0.645l0.388,0.788l0.094,0.787l0.068,0.735l-0.088,0.668v0.188
			l0.143,0.046l0.094,0.023l-0.026-0.44l0.075-0.712c-0.049-1.272-0.266-2.287-1.25-3.275c-0.504-0.438-0.813-1.135-1.029-1.431
			c-0.382-0.559-0.627-0.879-1.297-0.976c-0.502,0.052-0.457,0.068-0.793,0.462c-0.502,0.372-0.96,0.559-1.583,0.673
			c-0.191,0.023-0.213,0.137-0.191,0.28c0.074,0.896-0.051,2.486,0.074,2.903c0.043,0.234,0.861,0.992,1.344,1.34l0.285,0.371
			l0.237,0.153l0.436,0.189l0.554,0.113l0.243,0.143l0.214,0.086h0.336l0.26,0.143l0.433,0.188l0.625,0.342h0.194v0.048l0.069-0.303
			L37.017,76.69z M37.809,79.137v1.198l-0.023,0.394l-0.025,0.348l-0.117,0.44l-0.196,0.296l-0.408,0.531l-0.55,0.666l-0.476,0.463
			l-0.268,0.211l-0.402,0.021h-0.556l-0.696-0.073l-0.456-0.017l-0.576-0.023l-0.308-0.073l0.716-0.087l0.411-0.096l0.476-0.486
			l0.456-0.599l0.696-0.946l0.553-0.946l0.476-0.805l0.194-0.581l0.1-0.39l0.137,0.229L37.259,79l0.405,0.159L37.809,79.137z"/>
		<path fill="#22559C" d="M30.035,79.297c0.025-0.114,0.071-0.524,0.285-0.524c0.819,0,1.443-0.074,2.062-0.279
			c0.242-0.068,0.436,0.017,0.556,0.364l0.311,0.832l0.1,0.531l0.117,0.462l0.19,0.668l0.286,0.827l0.197,0.535l0.191,0.16
			l-0.456,0.463l-0.408,0.09l-0.719,0.098l0.191,0.046H32.67l-0.237-0.092l-0.285-0.279l-0.336-0.349l-0.237-0.53l-0.268-0.553
			l-0.217-0.508l-0.168-0.81l-0.097-0.576l-0.068-0.508l-0.025-0.274c-0.049-0.211-0.385-0.233-0.482-0.136
			C30.2,78.994,30.06,79.229,30.035,79.297"/>
		<path fill="#22559C" d="M31.112,85.069c0.243-0.508,0.191-1.296,0.577-1.939l0.148-0.252l-0.025-0.028l-0.239-0.53l-0.269-0.553
			l-0.214-0.502l-0.166-0.81l-0.074-0.417l0.02,0.114l-0.405,0.113c0,0-0.288,0.069-0.382,0.069l-0.191,0.028l0.022,0.411
			l-0.048,0.695c-0.026,0.508-0.266,1.078-0.508,1.456c-0.257,0.506-0.667,0.593-0.813,1.265c1.03-0.348,1.68-0.507,1.968-0.992
			v0.297C30.542,83.939,31.09,84.396,31.112,85.069"/>
		<path fill="#22559C" d="M30.824,79.873l-0.065-0.508l-0.029-0.159h-0.026c-0.331,0.067-0.599,0.114-0.935,0.097
			c-0.792-0.097-0.861-0.046-1.415,0.479c-0.405,0.394-0.625,0.735-0.956,1.152l-0.462,0.582l-0.453,0.569l0.528-0.388
			c0.553-0.371,1.078-0.713,1.776-0.811c0.094,0,0.645-0.25,0.645-0.25l0.291-0.188l0.143-0.091c0,0,0.12-0.023,0.216-0.023
			c0.094,0,0.382-0.069,0.382-0.069l0.408-0.113L30.824,79.873z M36.828,78.606v-0.023l-0.1-0.369l-0.021-0.092l-0.265,0.023
			l-0.673,0.188l-0.887,0.205l-0.838,0.138l-1.082,0.113h-0.051l0.051,0.046l0.285,0.81l0.266-0.068l0.481-0.051l0.622-0.046
			l0.431-0.018l0.191-0.256h0.36L36.058,79L36.828,78.606z"/>
		<path fill="#22559C" d="M30.824,79.873l-0.065-0.508l-0.029-0.159h-0.026c-0.331,0.067-0.599,0.114-0.935,0.097
			c-0.792-0.097-0.861-0.046-1.415,0.479c-0.405,0.394-0.625,0.735-0.956,1.152l-0.462,0.582l-0.453,0.569l0.528-0.388
			c0.553-0.371,1.078-0.713,1.776-0.811c0.094,0,0.645-0.25,0.645-0.25l0.291-0.188l0.143-0.091c0,0,0.12-0.023,0.216-0.023
			c0.094,0,0.382-0.069,0.382-0.069l0.408-0.113L30.824,79.873z M36.828,78.606v-0.023l-0.1-0.369l-0.021-0.092l-0.265,0.023
			l-0.673,0.188l-0.887,0.205l-0.838,0.138l-1.082,0.113h-0.051l0.051,0.046l0.285,0.81l0.266-0.068l0.481-0.051l0.622-0.046
			l0.431-0.018l0.191-0.256h0.36L36.058,79L36.828,78.606z"/>
		<path fill="#22559C" d="M29.59,79.702c0.094,0.553-0.431,0.667-0.79,0.781c-0.576,0.211-0.79,0.279-1.246,0.69
			c0.356-0.571,0.621-0.896,1.075-1.374C28.8,79.634,29.493,79.194,29.59,79.702 M31.621,76.348c-0.482,0-0.861,0.389-0.861,0.874
			c0,0.483,0.379,0.872,0.881,0.872c0.479,0,0.89-0.389,0.89-0.872c0-0.417-0.286-0.782-0.693-0.856h-0.216V76.348z"/>
		<path fill="#22559C" d="M32.171,75.84l-0.117,0.131l-0.123,0.143l-0.097,0.16l0.023,0.319l-0.094,0.144h-0.1l-0.042-0.114v-0.417
			l0.117-0.211l0.119-0.137l0.123-0.068h0.166L32.171,75.84z M19.813,67.854c-0.434,0-0.796,0.348-0.796,0.782
			c0,0.444,0.362,0.81,0.796,0.81c0.331,0,0.622-0.233,0.744-0.536h-0.026l0.045-0.177c0-0.028,0.026-0.046,0.026-0.097
			C20.603,68.202,20.244,67.854,19.813,67.854"/>
		<path fill="#22559C" d="M22.571,69.469l-0.359-0.211L21.9,69.144l-0.411-0.159l-0.499-0.161l-0.505-0.113l-0.242-0.166
			l-0.169,0.069v0.165l0.146,0.138h0.311l0.576,0.165l0.767,0.273L22.571,69.469z M21.687,68.499l-0.075-0.229l-0.048-0.256
			l-0.026-0.6l0.074-0.535l0.095-0.39l0.048-0.073l-0.097-0.062l-0.046,0.09l-0.096,0.279l-0.12,0.365l-0.049,0.325v0.303
			l0.023,0.297l0.075,0.188L21.687,68.499z"/>
		<path fill="#22559C" d="M21.972,65.499c-0.408,0-0.722,0.348-0.722,0.764c0,0.211,0.094,0.417,0.239,0.554l0.123,0.069v0.022
			c0.092,0.068,0.214,0.091,0.36,0.091c0.382,0,0.721-0.319,0.721-0.736C22.693,65.847,22.354,65.499,21.972,65.499 M11.993,55.345
			c-0.459,0-0.862,0.349-0.862,0.788c0,0.435,0.402,0.787,0.862,0.787c0.359,0,0.647-0.194,0.79-0.439l0.071-0.188
			c0-0.046,0.022-0.115,0.022-0.16C12.877,55.693,12.475,55.345,11.993,55.345"/>
		<path fill="#22559C" d="M14.725,57.747v0.113l-0.146,0.098l-0.097-0.098l-0.239-0.279l-0.457-0.41l-0.502-0.342l-0.408-0.285
			l-0.269-0.092l-0.21-0.068l-0.097-0.296l0.168-0.023l0.123,0.137l0.24,0.114l0.356,0.114l0.454,0.348l0.316,0.273l0.308,0.354
			L14.725,57.747z M12.877,53.914c-0.479,0-0.884,0.349-0.884,0.765c0,0.439,0.405,0.782,0.884,0.782
			c0.242,0,0.462-0.063,0.605-0.206l0.117-0.159c0.097-0.114,0.145-0.258,0.145-0.417c0-0.416-0.385-0.759-0.867-0.759"/>
		<path fill="#22559C" d="M14.098,55.99l-0.237-0.318l-0.243-0.234l-0.216-0.183l-0.188-0.159l-0.143-0.047l-0.074-0.188
			l0.094-0.069l0.148,0.046l0.094,0.114l0.262,0.211l0.217,0.257l0.311,0.252L14.098,55.99z M15.304,52.944
			c-0.481,0-0.886,0.37-0.886,0.787c0,0.303,0.214,0.576,0.499,0.689l0.171,0.074c0.068,0.019,0.146,0.019,0.216,0.019
			c0.479,0,0.887-0.343,0.887-0.782C16.191,53.314,15.783,52.944,15.304,52.944"/>
		<path fill="#22559C" d="M15.11,54.285l0.048-0.114l-0.074-0.092l-0.168,0.018l-0.046,0.097l-0.071,0.32l-0.142,0.393l-0.1,0.371
			l-0.026,0.273l-0.049,0.439v0.251l0.103,0.029l0.017-0.161l0.1-0.369l0.071-0.44l0.144-0.531l0.099-0.393L15.11,54.285z
			 M15.829,43.603c-0.457,0-0.841-0.394-0.841-0.855c0-0.485,0.385-0.855,0.841-0.855c0.453,0,0.841,0.371,0.841,0.855
			C16.67,43.209,16.282,43.603,15.829,43.603"/>
		<path fill="#22559C" d="M15.062,43.072h-0.337l-0.171,0.166l-0.188,0.206l-0.049-0.234l0.288-0.274l0.24-0.186l0.145-0.048v0.048
			C14.99,42.861,15.013,42.976,15.062,43.072 M11.534,41.734c-0.433,0-0.819,0.414-0.819,0.901c0,0.482,0.386,0.898,0.819,0.898
			c0.331,0,0.625-0.233,0.742-0.53l-0.02-0.028l0.094-0.206v-0.134C12.35,42.148,11.99,41.734,11.534,41.734"/>
		<path fill="#22559C" d="M13.21,43.74l-0.094-0.32l-0.168-0.253l-0.308-0.234l-0.268-0.14l-0.188-0.159l-0.171,0.091v0.208
			l0.243,0.049l0.262,0.137l0.288,0.166l0.12,0.205l0.096,0.206v0.234l0.049,0.226c0.02-0.089,0.046-0.296,0.143-0.414
			 M56.952,29.491c0.359-1.46,0.689-2.909,0.854-4.412c0.078-0.927,0.26-1.783,0.374-2.695 M56.774,29.742
			c-0.521-2.264-1.676-4.344-2.88-6.323 M60.898,28.88l0.049,1.66v1.708l-0.049,1.753v4.153l-0.074,0.231 M60.488,38.275
			l-0.576-0.742l-0.528-0.645l-0.579-0.649L58.184,35.5l-0.792-0.733l-0.551-0.579l-0.936-0.81l-0.672-0.648l-0.386-0.319
			l-0.428-0.417 M59.527,37.762l-0.838-0.479l-0.745-0.514l-1.032-0.524l-0.935-0.582l-1.013-0.6l-1.03-0.644l-0.861-0.345
			l-0.675-0.391 M62.288,40.049c0.673-1.272,1.081-2.447,1.538-3.787c0.311-1.01,0.476-2.008,0.718-3.04 M64.518,40.905
			l-0.286,0.921l-0.316,1.411l-0.333,1.332l-0.286,1.155l-0.388,1.573l-0.114,0.571l-0.197,0.855 M60.75,40.719l0.673,1.686
			l0.336,1.106l0.386,1.266l0.142,1.203l0.097,1.198v1.061l-0.026,0.696 M61.832,49.352l-0.454-0.948l-0.407-0.832l-0.437-0.879
			l-0.742-0.918l-0.431-0.673l-0.627-0.694l-0.502-0.667l-0.77-1.106 M61.854,50.412l-0.191-0.531l-0.197-0.348l-0.336-0.371
			l-0.331-0.232l-0.765-0.479l-0.964-0.65l-0.528-0.206l-0.407-0.348l-0.931-0.438l-0.627-0.456l-0.722-0.767 M61.543,53.989
			l-0.528-0.879l-0.933-1.272l-0.938-1.198l-1.084-1.198l-1.007-1.386 M67.302,41.455l-1.509,3.163l-0.437,0.803l-0.936,1.477
			l-0.933,1.37l-0.193,0.483 M71.577,45.724c-2.281,1.317-4.563,2.076-6.958,3.069l-0.63,0.296l-0.309,0.238 M60.653,54.93
			l-0.401-0.485l-0.583-0.689l-0.696-0.714l-0.742-0.604l-0.77-0.735l-0.55-0.554l-0.813-0.667 M62.456,54.633l1.343-0.992
			l0.91-0.696l1.298-0.94l1.294-0.999l1.035-0.781l0.356-0.273 M65.502,61.158l-1.366,0.696l-1.247,0.696l-1.13,0.569l-1.637,0.719
			l-1.266,0.667L57.848,64.9l-0.868,0.416 M58.136,63.446l0.527-0.509l0.745-0.787l0.887-0.964l0.819-1.021l0.841-1.009l0.815-1.181
			l0.719-1.078l0.625-1.067 M57.63,63.144l0.408-1.592l0.194-2.054v-1.614l0.049-1.22l-0.097-1.182 M57.104,62.847l-0.072-1.592
			l-0.216-1.614l-0.237-1.733l-0.556-3.023 M56.361,63.907l-0.456-1.084l-0.336-1.271l-0.576-1.517l-0.431-1.228L54.2,57.747
			l-0.288-1.18 M63.728,67.718l-1.272,0.063l-1.343,0.098l-1.344,0.045l-1.514,0.138l-1.629,0.045l-1.948,0.097 M54.99,65.983
			l-0.768,1.779l-0.932,1.381l-0.722,1.038l-0.741,1.112l-0.773,0.873l-0.862,0.854l-0.524,0.417l-0.294,0.114 M52.711,64.74
			l-0.719,2.373l-0.36,1.181l-0.265,1.175l-0.237,1.409 M48.707,73.324l0.819-1.984l0.143-0.855l0.45-1.94l0.289-1.361l0.19-1.872
			 M57.63,72.327l-3.12,0.325h-3.237 M56.578,75.817l-2.667-1.158l-1.561-0.735l-0.983-0.416l-0.933-0.28 M49.833,67.694
			l-0.841,1.752l-0.525,0.804l-0.65,1.181l-0.553,0.622 M45.969,74.038l0.216-1.272l0.431-1.774l0.385-1.409l0.311-1.408l0.456-2.19
			 M54.824,77.608l-1.845-0.827l-1.495-0.689l-1.172-0.576l-0.718-0.366l-0.841-0.302l-1.033-0.417 M52.449,77.871l-1.891-0.531
			l-1.805-0.444l-1.321-0.297l-1.44-0.417l-0.861-0.188l-0.602-0.177 M62.163,48.814l-0.117-0.919l-0.453-1.454L61.11,45.45
			l-0.428-1.037l-0.34-0.627 M61.427,71.271l-0.796-0.439l-0.745-0.416l-0.793-0.37l-0.741-0.372l-0.744-0.324l-0.744-0.229
			l-0.762-0.297l-0.391-0.164 M36.657,77.939l-0.482-0.028c-0.791-0.365-1.583-0.645-2.445-0.827l-0.382-0.325l-0.818-0.274
			l-0.554-0.416l0.075-0.092l0.12-0.143l-0.026-0.045h-0.168l-0.12,0.068l-0.069,0.119l-1.368-0.53l-0.34-0.256l-0.094-0.047
			l0.048-0.068l0.24-0.182l-0.094-0.098l-0.291,0.068l-0.191,0.114l-0.12-0.062l-0.505-0.258l-0.647-0.318l0.387-0.093l0.431-0.073
			l-0.722-0.113l-0.216-0.069l-0.622-0.233h-0.1l0.576-0.023l1.032,0.188l0.197,0.017l-0.22-0.296l-0.188-0.252l-0.217-0.188
			l-0.054-0.325l-0.214-0.131l-0.071-0.137l-0.191-0.149v-0.222l-0.194-0.377l-0.023-0.273l-0.259-0.416l-0.054-0.366l-0.214-0.416
			v-0.529l0.048-0.371l0.072-0.759l-0.217-0.325v-1.067c0,0-0.026-0.017-0.046-0.045l0.046-0.343l0.077-0.559l0.02-0.615
			l-0.123-0.765l0.434,0.575l0.359,0.508l0.266,0.559l0.456,0.348l0.071,0.32l0.359,0.228l0.146,0.234l0.265,0.484l0.356,0.063
			l0.194,0.489l0.168,0.115l0.214,0.319l0.194,0.485l0.022,0.233h0.146l0.048,0.416l0.045,0.325l0.052,0.479v0.947l0.026,0.37
			l-0.078,0.348l0.052,0.389l-0.097,0.576l-0.123,0.49v0.319c0.676,0.394,1.44,0.718,2.068,1.152h0.14l0.025,0.028l0.237,0.159
			l0.44,0.188l0.55,0.108l0.24,0.143l0.217,0.086h0.336l0.26,0.143l0.433,0.188l0.625,0.342h0.194v0.048l-0.051,0.342v0.348V77.939z
			"/>
		<path fill="#22559C" d="M30.756,74.499l-0.507-1.157l-0.55-1.175l-0.34-1.084l-0.331-1.227l-0.313-0.985l-0.288-0.834
			l-0.243-0.992l-0.382-1.062 M27.588,72.932l0.24,0.158l0.093,0.121l0.386,0.153l0.528,0.166l-0.428-0.279l-0.508-0.395
			l-0.528-0.228l-0.168-0.324l-0.017-0.008l0.162,0.31L27.588,72.932z M27.188,72.297L27.18,72.28l-0.339-0.182l-0.234-0.194
			l0.217,0.194L27.188,72.297z"/>
		<path fill="#22559C" d="M26.529,66.007l-0.097-0.114l-0.214-0.257l-0.094-0.297l-0.359-0.091L25.5,64.854l-0.18-0.068
			l-0.089,0.524v0.49l-0.034,0.486l0.028,0.364l0.105,0.416l-0.291,0.046l0.071,0.349v0.992l0.265,0.599l0.109,0.508l0.057,0.324
			l0.291,0.479l0.119,0.258l0.408,1.061l0.245,0.228l0.237,0.188l0.333,0.182l0.012,0.017l0.014,0.008l0.168,0.324l0.531,0.228
			l0.505,0.395l0.428,0.279l-0.531-0.166l-0.383-0.153L27.83,73.09l-0.242-0.164l-0.24-0.313l-0.159-0.315l-0.371-0.198
			l-0.211-0.188l-0.245-0.2l-0.308-0.143l-0.385-0.273l-0.482-0.279l-0.288-0.092l-0.337-0.097l-0.311-0.018l-0.359-0.204
			l-0.337-0.12l-0.388-0.034l-0.259-0.063h-0.454l-0.219-0.166l-0.408-0.182h-0.838l-0.168-0.149l-0.431,0.063l-0.385,0.087h-0.508
			l-0.308-0.121h-0.384l-0.283-0.006l-0.339-0.063l0.573,0.571l0.24,0.183l0.145,0.25l0.528,0.303l0.359,0.251l0.097,0.159
			l0.171,0.206l0.456,0.12l0.405,0.604h0.333l0.146,0.297l0.408,0.337l0.457,0.125l0.334,0.279l0.75,0.041l0.45,0.09l0.582,0.075
			l0.234,0.091l0.527-0.028l0.459,0.188l0.504-0.16l0.188,0.068l0.647-0.097l0.984-0.068l1.032,0.188l0.194,0.022l-0.214-0.302
			l-0.194-0.258l-0.217-0.176l-0.048-0.331L28.5,72.742l-0.111-0.13l-0.223-0.144v-0.228l-0.157-0.377l-0.009-0.273l-0.256-0.416
			l-0.06-0.366l-0.222-0.416v-0.536l0.062-0.364l0.055-0.759l-0.237-0.325v-1.175l-0.023-0.029l-0.094-0.108l-0.142-0.354
			l-0.12-0.252l-0.166-0.203l-0.268-0.304"/>
		<path fill="#22559C" d="M27.636,71.933l-0.553-1.38l-0.457-1.084l-0.385-1.341l-0.308-1.356l-0.311-1.198 M27.588,73.273
			l-0.791-0.184l-1.226-0.369l-0.984-0.554l-1.006-0.273l-1.152-0.416l-1.178-0.439l-1.006-0.395l-0.913-0.365 M27.682,73.759
			l0.625,0.228l0.216,0.075l0.719,0.113l-0.433,0.068l-0.573,0.143l-0.647,0.273l-0.171,0.205l-0.333,0.098l-0.26,0.113
			l-0.294,0.138l-0.288,0.371l-0.236,0.113l-0.266,0.047l-0.362,0.119l-0.311,0.183l-0.311,0.091l-0.696,0.074l-0.333,0.245H23.15
			l-0.339-0.04h-0.553l-0.382-0.028l-0.525-0.159h-0.265l-0.65-0.206l-0.379-0.205l-0.317-0.051l-0.647-0.206l-0.502-0.022
			L18.13,75.31l-0.596-0.234l0.428-0.045l0.362-0.137l0.722-0.257l0.622-0.274l0.479-0.188l0.336-0.137l0.388-0.166l0.285-0.017
			l0.505-0.189l0.285-0.067l0.815-0.137l0.072,0.073l0.75,0.041l0.453,0.09l0.576,0.069l0.237,0.092l0.527-0.023l0.459,0.183
			l0.504-0.159l0.188,0.068l0.647-0.092L27.682,73.759z"/>
		<path fill="#22559C" d="M27.465,74.271l-0.55,0.063l-0.504,0.096l-0.885,0.068l-1.015,0.063l-1.172,0.166h-1.104l-0.961,0.068
			l-0.719,0.098l-0.984,0.137l-1.004,0.092 M30.274,74.894l-0.24,0.182l-0.117,0.161c0.02,0.786-0.029,1.203-0.459,1.779l-0.1,0.41
			l-0.088,0.325l-0.436,0.303l-0.217,0.092l-0.237,0.228l-0.313,0.348l-0.239,0.052L27.61,78.88l-0.36,0.166L27.015,79.2
			l-0.343-0.018l-0.262,0.211l-0.237,0.068l-0.508,0.063l-0.213,0.143l-0.386,0.067l-0.219,0.047l-0.257,0.022l-0.217,0.113
			l-0.555,0.12l-0.431,0.114l-0.5,0.068l0.188-0.394l0.092-0.302l0.248-0.205l0.26-0.297l0.143-0.325l0.216-0.229l0.313-0.324
			l0.146-0.229l0.382-0.331l0.214-0.342l0.482-0.159l0.191-0.416l0.243-0.138l0.405-0.257l0.501-0.279l0.339-0.131l0.693-0.325
			l0.36-0.137l0.028-0.143l0.577-0.022l0.45-0.114l0.313-0.115l0.217-0.143l0.288-0.063L30.274,74.894z"/>
		<path fill="#22559C" d="M29.216,75.47l-1.101,0.622l-1.444,0.969l-1.389,1.153l-0.67,0.416l-1.058,1.152l-0.285,0.165
			 M21.635,35.663H21.35l-0.53,0.068l-0.479,0.023l-0.313,0.041l-0.528,0.222l-0.407,0.02l-0.576,0.163l-0.645,0.154l-0.291,0.26
			l-0.194,0.043l-0.359,0.438l-0.311,0.068c0,0-0.262,0.28-0.355,0.325c-0.123,0.046-0.217,0.16-0.217,0.16l-0.211,0.257
			l-0.151,0.159l-0.026,0.14l-0.119,0.14l-0.166,0.046l-0.193,0.365l-0.166,0.114l-0.123,0.143l-0.286,0.439l-0.1,0.417
			l-0.168,0.391l-0.017,0.208l-0.434,0.484l0.14-0.647l0.123-0.345l0.239-0.417l0.146-0.53l0.405-0.531l0.359-0.371l0.434-0.622
			l0.191-0.462l0.311-0.37l0.046-0.594l0.096-0.832l-0.096-0.462l0.148-0.969l-0.214-0.533l-0.199-0.534l-0.265-0.182v-1.334
			l-0.057-0.348l-0.1-0.485l-0.283,0.647l-0.088,0.414l-0.237,0.579l-0.094,0.229l-0.188,0.208l-0.123,0.371l-0.123,0.182
			l-0.072,0.28l-0.168,0.185l-0.068,0.436l-0.148,0.3l-0.049,0.254l-0.165,0.388l-0.045,0.376l-0.072,0.57l0.146,0.348l-0.103,0.234
			l-0.111,0.414l0.154,0.487v0.414l0.16,0.573l0.163,0.28l0.153,0.416l-0.042,0.345l-0.24,0.528l-0.236,0.536l-0.123,0.599
			l-0.231,0.55l-0.22-0.533l0.146-0.576v-0.439l0.094-0.479l0.094-0.37l0.058,0.068l0.108-0.508v-0.531l-0.08-0.667l-0.151-0.507
			l-0.246-0.762l-0.214-0.438l-0.214-0.3l-0.148-0.461l-0.333-0.691l-0.302-0.507l-0.425-0.667v-0.028l-0.191-0.439l-0.034-0.137
			l0.02,0.017L11.38,32.48l-0.02,0.53l-0.068,0.696l-0.143,0.296l-0.071,0.229l-0.159,0.21v0.231l0.117,0.229l-0.026,0.186
			l-0.022,0.256l-0.068,0.154v0.813l0.071,0.186l-0.071,0.16v0.113l0.065,0.211l0.048,0.114l-0.08,0.602l0.085,0.137v0.117
			l0.16,0.253l-0.003,0.437l0.04,0.254l0.314,0.348l0.074,0.28l0.242,0.527l0.32,0.343l0.336,0.351l0.402,0.208l0.171,0.417
			l0.165,0.391v0.898l0.097,0.325l0.105,0.114l0.035-0.023l0.214-0.23l0.025-0.071v-0.28l-0.025-0.501l0.1-0.442l0.385-0.508
			l0.268-0.208l0.888-0.069l0.644-0.251l0.508-0.185l0.479-0.206l0.573-0.188l0.414-0.162l0.693-0.479l0.884-0.514l0.673-0.69
			l0.359-0.599l0.365-0.484l0.622-0.742l0.262-0.388l0.434-0.487L21.635,35.663z"/>
		<path fill="#22559C" d="M13.382,40.762l0.263-0.342l0.074-0.65l0.052-0.527L14,38.711l0.168-0.253l0.028,0.091l0.143,0.416
			l-0.046,0.345l-0.242,0.528l-0.239,0.536l-0.117,0.599l-0.243,0.553l-0.071-0.208V40.762z M13.31,41.064l0.072-0.302v0.556
			L13.31,41.064z"/>
		<path fill="#22559C" d="M13.453,41.523l0.236-0.55l0.12-0.599l0.242-0.533l0.242-0.533l0.043-0.342l-0.14-0.416l-0.02-0.091
			l-0.171,0.253l-0.24,0.528l-0.048,0.536l-0.077,0.645l-0.26,0.342l-0.077,0.302L13.453,41.523z M21.242,36.027l-2.507,1.347
			l-1.203,0.878l-1.68,1.221l-1.004,0.861 M14.531,38.76l0.336-1.477l0.168-1.437l0.288-1.843l0.049-1.429l0.103-0.67 M13.02,40.856
			l-0.551-1.363l-0.216-1.52l-0.24-1.408l-0.266-1.267l-0.137-1.489 M16.428,33.541l0.268-0.302l0.311-0.434l0.311-0.556l0.12-0.417
			l0.408-0.482l0.188-0.166l0.727-0.793l0.548-0.567l0.839-0.368l0.216-0.14l0.459-0.205l0.188-0.254l0.288-0.023l0.936-0.995
			l0.673-0.898l0.721-1.199l0.453-0.946l0.531-0.553l-0.504,0.12l-0.576,0.111l-0.171,0.114l-0.237,0.231l-0.24,0.046l-0.479,0.274
			l-0.53,0.097l-0.071,0.16l-0.265,0.023l-0.314,0.279l-0.308,0.114l-0.193,0.046v0.119l-0.312,0.092l-0.071,0.25l-0.431,0.229
			v0.351l-0.12,0.18l-0.265,0.233l-0.217,0.342l-0.094,0.166l0.018,0.299l-0.214,0.208l-0.091,0.208l-0.048,0.137l-0.171,0.234v0.41
			l-0.188,0.716l-0.336,0.625l-0.385-0.026l-0.143,0.117l-0.314,0.508l-0.239,0.35l-0.194,0.365l-0.236,0.277l-0.123,0.231
			l-0.146,0.53l-0.091,0.143v0.112L16.428,33.541z"/>
		<path fill="#22559C" d="M18.857,29.825l0.499-0.827l0.597-0.739l0.844-0.807l0.693-0.647l0.553-0.554l0.936-0.735l0.524-0.468
			 M44.266,79.28c0.028-0.023,0.028-0.023,0.048-0.052c0.36-0.234,0.619-0.183,0.913,0.233v0.041h-0.294l-0.453-0.109L44.266,79.28z
			 M30.06,79.28l-0.025,0.017c0.214,0,0.428-0.04,0.673-0.091h0.022v-0.12c-0.046-0.206-0.385-0.229-0.482-0.131
			C30.206,78.978,30.109,79.159,30.06,79.28 M17.175,25.205l0.097,0.253l0.285,0.254l0.365,0.231l0.045,0.188l0.117,0.414
			l0.146,0.16v0.254l0.097,0.234l-0.049,0.667l-0.145,0.462v0.924l-0.074,0.388l-0.071,0.166l-0.065,0.319l-0.177,0.348
			l-0.117,0.211l-0.185,0.707l-0.183,0.205l-0.354-1.332l-0.331-0.459v-0.417l-0.193-0.322l-0.072-0.647l0.049-0.507l-0.072-0.183
			l0.022-0.487l0.143-0.369l-0.048-0.393l0.097-0.276l0.166-0.231l0.074-0.14l0.313-0.225L17.175,25.205z"/>
		<path fill="#22559C" d="M17.395,30.672l0.057-0.667v-2.054l-0.123-1.106l-0.025-0.761 M24.75,31.636l-0.217-0.164l-0.071-0.137
			l-0.146-0.071l0.025,0.048l-0.12-0.163l-0.12-0.16l-0.24-0.117l-0.313-0.091l-0.12-0.072l-0.311-0.022l-0.217-0.026l-0.097-0.179
			l-0.214-0.117L22.3,30.295l-0.356-0.068l-0.573-0.046l-0.53,0.023l-0.725,0.045l-0.308,0.091l-0.551,0.163l-0.362,0.185
			l-0.288,0.257l-0.117,0.085l-0.217,0.282l-0.624,0.533l-0.408,0.482l-0.337,0.134l-0.268,0.282l0.074,0.208l0.148-0.048
			l0.211-0.231l0.293-0.094l0.305-0.046l0.459,0.046l0.431-0.134l0.336,0.125l0.405,0.157h0.479l0.223,0.1l0.333-0.055l0.459-0.026
			l0.334,0.089l0.379,0.014l0.362-0.006h0.479l0.146-0.234h0.265l0.408-0.003l0.311-0.196l0.411-0.074l0.305-0.26l0.365-0.097
			l0.362-0.066l0.217-0.068L24.75,31.636z"/>
		<path fill="#22559C" d="M23.552,31.602l-0.818-0.068h-1.58l-0.941,0.045l-1.295,0.274l-1.019,0.314 M17.845,33.427
			c-0.482,0-0.864,0.394-0.864,0.853c0,0.048,0,0.094,0.023,0.14l0.026-0.026v0.163c0.12,0.348,0.43,0.582,0.815,0.582
			c0.479,0,0.861-0.371,0.861-0.858C18.707,33.82,18.324,33.427,17.845,33.427"/>
		<path fill="#22559C" d="M17.745,34.231L17.7,34.345l-0.19,0.049l-0.286,0.048l-0.243,0.14l-0.388,0.254l-0.165,0.137l-0.045-0.206
			l0.242-0.094l0.399-0.279l0.243-0.066l0.268-0.068l0.117-0.094L17.745,34.231z M13.978,53.896l-0.379-0.37l-0.242-0.188
			l-0.451-0.507l-0.314-0.44l-0.188-0.501l-0.293-0.537L11.75,50.8l-0.404-0.553l-0.314-0.463l-0.385-0.457l-0.265-0.348
			l0.074,0.046l-0.504-0.673L9.4,47.914L8.704,47.64l-0.767-0.303l-0.411-0.113l-0.499-0.183L6.352,46.95l-0.288-0.029H5.296
			l-0.337-0.063l-0.407-0.144l-0.339-0.051l-0.02-0.012l-0.528-0.118l0.071,0.233l0.32,0.484l0.291,0.502v0.136l0.45,0.509
			l0.55,0.49l0.539,0.485l0.505,0.388l0.294,0.393l0.242,0.069l0.216,0.25L7.43,50.64l0.242,0.068l0.266,0.138l0.339,0.233
			l0.283,0.182l0.34,0.184l0.524,0.119l0.214,0.161l0.096,0.09l0.288,0.121l0.217,0.152l0.385,0.229h0.288l0.527,0.165l0.502,0.074
			l0.504,0.399l0.482,0.37l1,1.073L13.978,53.896z"/>
		<path fill="#22559C" d="M12.324,52.465l-1.03-0.65l-0.77-0.507l-0.647-0.484L9.039,50.27L7.84,49.647l-1.063-0.879L5.85,48.217
			l-1.158-0.811l-0.448-0.365 M19.619,46.95c0.009-0.006,0.015-0.019,0.017-0.024C19.622,46.926,19.619,46.95,19.619,46.95
			 M19.73,46.784c-0.026,0.04-0.065,0.074-0.086,0.12v0.012C19.674,46.876,19.702,46.842,19.73,46.784"/>
		<path fill="#22559C" d="M19.599,46.755v-0.063l-0.148,0.184l-0.394,0.137l-0.39,0.279l-0.494,0.256L17.82,47.8l-0.55,0.787
			l-0.819,0.74l-1.107,0.503l-0.596,0.582l-0.094,0.319l-0.123,0.137l-0.049,0.348l-0.216,0.258l-0.02,0.644l-0.168,0.411
			l-0.217,0.559l0.114,0.485l0.279-0.371l0.32-0.279l0.724-0.114l0.579-0.251l0.887-0.485l0.724-0.536v-0.011l0.383-0.217
			l0.542-0.531l0.325-0.529l0.439-0.811l0.248-0.622l0.048-0.81c0.052-0.411,0.148-0.873,0.22-1.313
			C19.682,46.715,19.599,46.738,19.599,46.755"/>
		<path fill="#22559C" d="M14.403,52.453l0.753-0.797l0.65-0.782l0.956-1.112l0.913-0.947l0.77-0.646l0.742-0.763 M19.657,43.272
			l0.011-0.014l-0.068,0.14L19.657,43.272z"/>
		<path fill="#22559C" d="M19.667,43.261l-0.068,0.017l-0.722,0.348l-0.722,0.405l-0.265,0.43h-0.381l-0.312,0.237l-0.239-0.006
			l-0.317,0.237l-0.14,0.235h-0.217l-0.554,0.257l-0.262,0.136l-0.026,0.201L15.15,45.82l-0.243,0.184v0.917l-0.091,0.257
			l-0.191,0.827l-0.117,0.325l-0.046,0.12l-0.553,1.38l0.405-1.363l-0.117,0.302l-0.214,0.741l-0.265,0.737l0.022,0.393
			l-0.022,0.416l-0.217,0.69l-0.214,0.811l0.151,0.388l0.271-0.759l0.174-0.508l0.356-0.649l0.268-0.389l0.842-0.81l1.106-0.508
			l0.81-0.735l0.841-1.203l0.602-1.062l0.312-1.129l0.239-0.877l0.322-0.828l0.017-0.011l0.092-0.19h-0.017l0.017-0.043
			l-0.023,0.043l-0.011,0.002"/>
		<path fill="#22559C" d="M14.22,50.27l0.65-1.408l0.768-1.176l0.932-1.244l1.201-1.34l1.201-1.082 M8.964,43.625l0.146,0.166
			l0.336,0.55l-0.579-0.97l0.052,0.089L8.964,43.625z"/>
		<path fill="#22559C" d="M12.632,50.942l-0.068-0.422v-0.925l-0.591-1.403v-0.826l-0.162-0.411l0.068,0.148l0.094,0.217v-0.097
			l-0.083-0.159l-0.102-0.148l-0.069-0.148l-0.457-0.695l-0.305-0.6l-0.602-0.532l-0.477-0.462l-0.434-0.436l-0.482-0.417
			l-0.045-0.163l-0.052-0.094l0.052,0.046l-0.026-0.046l-0.385-0.202L8.32,42.976l-0.337-0.069l-0.747-0.622l-0.043,0.373l0.068,0.6
			l0.117,0.83l0.339,0.485l-0.026,0.185l0.123,0.254l-0.025,0.46l0.094,0.342l0.023,0.189l0.291,0.301l0.123,0.273l-0.078,0.304
			l0.22,0.296l0.143,0.37l0.146,0.16l0.55,0.206l0.551,0.438l0.511,0.673l-0.075-0.046l0.263,0.343l0.382,0.468l0.313,0.457
			l0.051,0.068l0.593,0.324l0.026,0.023l0.499,0.621l0.508,0.771L12.632,50.942z"/>
		<path fill="#22559C" d="M12.164,50.646l-0.533-0.952l-0.771-1.295l-0.887-1.312l-0.815-1.221l-0.67-1.176L7.692,43.58
			l-0.077-0.562 M14.885,45.29l-0.234-0.812l-0.049-0.596l-0.185-0.695l-0.334-1.155v0.191l-0.025-0.097l-0.34,0.716l-0.217,0.23
			l-0.168,0.577c-0.191,0.045-0.263,0.533-0.263,0.533l-0.242,0.042l-0.048,0.508l-0.168,0.025l-0.288,0.852l-0.166,0.621
			l0.068,0.189l-0.182,0.364l-0.072,0.576v0.832l0.525,1.432l0.319,0.646l0.077,0.37l0.029,0.537l0.16,0.501l0.179,0.28v-0.531
			l0.2-0.645l0.445-0.952l0.553-1.387l0.168-0.433l0.188-0.833l0.091-0.252v-0.854L14.885,45.29z"/>
		<path fill="#22559C" d="M13.125,50.697l0.048-0.873l0.111-1.369l-0.023-1.182v-1.053l0.14-1.152l0.146-1.058l0.385-0.927
			 M21.13,67.507l0.094,0.188l-0.265,0.137l-0.282-0.113l-0.314-0.211l-0.599-0.279l-0.673-0.092h-0.79l-0.482,0.165l-0.36,0.04
			l-0.19,0.121l-0.574-0.069l-0.223,0.069h-0.524l-0.24,0.045h-0.336l-0.408-0.092l-0.576-0.074l-0.457-0.205l-0.55-0.159
			l-0.194-0.114l-0.622-0.183l-0.362-0.303l-0.359-0.114l-0.282-0.444l-0.294-0.063l-0.285-0.274l-0.074-0.211l-0.337-0.142
			l-0.026-0.16l-0.168-0.144l-0.24-0.25l-0.214-0.484L9.614,63.93l-0.1-0.159l-0.285-0.279l0.504,0.046l0.431-0.091l0.482,0.165
			h0.621l0.674-0.098l0.333-0.022l0.576,0.091l0.553,0.144l0.458,0.022l0.168-0.137l0.502,0.045l0.457,0.132l0.311,0.119
			l0.362,0.022l0.236,0.212h0.411l0.405,0.364l0.339,0.166l0.215,0.017l0.285,0.258l0.291,0.113l0.259,0.251l0.171,0.188
			l0.285,0.302l0.146,0.183l0.362,0.325l0.285,0.343l0.314,0.188l0.385,0.183l0.55-0.781l-0.023-0.422l-0.097-0.411l-0.214-0.461
			l-0.025-0.576l-0.288-0.279l0.022-0.6l-0.214-0.211l0.025-0.479v-0.394l-0.123-0.415l0.146-0.274l0.071-0.35l0.048-0.273
			l0.094-0.348l0.048-0.388l0.146-0.302l0.097-0.674l0.359-0.228l0.265-0.372l0.214-0.232l0.482-0.296l0.217-0.372l0.305-0.484
			l0.097,0.645l0.196,0.234v0.251l0.117,0.342l0.191,0.354l0.072,0.348l0.051,0.297l-0.025,0.621v1.084l-0.071,0.394l0.023,0.143
			l0.074,0.297l0.072,0.251l-0.169,0.416l-0.168,0.463l-0.166,0.091l0.046,0.211l-0.145,0.234l-0.141,0.342l-0.171,0.137
			l-0.188,0.395v0.324l-0.339,0.113l-0.24,0.303l-0.12,0.206l-0.166,0.114l-0.048,0.438L21.13,67.507z"/>
		<path fill="#22559C" d="M18.684,66.793l-1.56-0.393l-1.78-0.371l-1.891-0.667l-1.369-0.439l-1.415-0.714 M20.82,65.362
			l0.068-0.622l0.077-0.718l0.045-0.972l0.168-0.553v-0.712l0.071-0.668l0.356-0.65l0.197-0.667l0.023-0.855l0.094-0.645
			 M20.363,55.534v0.827l0.12,0.924l0.288,0.965l0.1,0.324l0.043,0.258l-0.237,0.324l-0.362,0.228l-0.094,0.674l-0.143,0.297
			l-0.051,0.393l-0.094,0.342l-0.051,0.279l-0.068,0.35l-0.146,0.274l0.125,0.415v0.394l-0.028,0.484l0.214,0.206l-0.022,0.604
			l0.122,0.113l-0.122,0.206l-0.143,0.508l-0.146,0.394v0.508l-0.123,0.068l-0.117-0.182l0.071-0.166l-0.02-0.599l-0.025-0.576
			l-0.216-0.6l-0.289-0.599l-0.166-0.234v-0.229l-0.148-0.256l-0.117-0.394l-0.025-0.137l0.025-0.046l0.071-0.69l0.143-0.787v-1.381
			l-0.143-0.444l-0.022-0.045l0.262-0.594l0.217-0.628l0.359-0.461l0.408-0.6L20.363,55.534z"/>
		<path fill="#22559C" d="M19.599,65.521v-1.631l-0.123-1.227l-0.097-1.454l-0.023-1.09l0.095-1.106l0.242-1.358l0.356-1.175
			 M18.555,58.574l-0.196-0.439l-0.018-0.068c0-0.022,0.026-0.228,0.026-0.228l-0.117-0.439l-0.097-0.326l-0.191-0.409l-0.143-0.28
			l-0.311-0.599l-0.217-0.342l-0.356-0.491l0.045,0.051l-0.479-1.014l-0.223,0.644l-0.313,0.463v0.415l-0.12,0.457v0.462
			l-0.081,0.514l0.078,0.456l0.054,0.764l-0.012,0.6l0.031,0.713l0.026,0.394l0.126,0.765l0.359,0.9l0.382,0.594l0.507,0.581
			l0.408,0.531l0.072,0.319l0.143,0.348l0.12,0.205l0.123-0.137l-0.168-0.273l-0.029-0.507l0.074-0.326l0.194-0.462l0.262-0.53
			l0.04-0.69l0.106-0.781v-1.387L18.555,58.574z"/>
		<path fill="#22559C" d="M17.868,63.399l-0.094-0.804L17.7,61.74l-0.22-0.855l-0.305-1.107l-0.194-0.9l-0.191-0.811l-0.123-1.317
			l-0.117-1.102v-0.734 M17.317,62.961l-0.408-0.342l-0.505-0.372l-0.408-0.741l-0.647-0.69l-0.405-0.416l-0.268-0.364l-0.285-0.144
			l-0.437-0.554l-0.356-0.37L13.259,58.9l-0.382-0.298l-0.385-0.067l-0.308-0.304l-0.311-0.017l-0.722-0.468h-0.89L9.638,57.56
			l-0.702-0.32l-0.765-0.068l-0.499-0.098l-0.798-0.04l0.293,0.252l0.309,0.417l0.242,0.416l0.285,0.273l0.24,0.211l0.317,0.365
			l0.24,0.462l0.137,0.258l0.248,0.182l0.188,0.279l0.288,0.251l0.24,0.416l0.311,0.069l0.387,0.347l0.192,0.252l0.408,0.165
			l0.41,0.319l0.477,0.138h0.265l0.379,0.37l0.702,0.028h0.667l0.411,0.137h0.556l0.616-0.073l0.604,0.165l0.525,0.183l0.559,0.183
			L17.317,62.961z"/>
		<path fill="#22559C" d="M17.244,63.029l-1.318-0.736l-1.252-0.667l-1.315-0.65L11.75,60.12l-0.983-0.667l-1.033-0.6l-1.032-0.639
			l-1.126-0.879"/>
		<path fill="#22559C" d="M20.58,67.369l0.148,0.114l0.02-0.462l-0.071-0.415l-0.097-0.138l-0.285-0.416l-0.439-0.485l-0.165-0.16
			l-0.223-0.348l-0.499-0.6l-0.645-0.946l-0.313-0.434l-0.69-0.371l-0.414-0.462l-0.045-0.051l-0.048-0.063l-0.385-0.6l-0.359-0.9
			l-0.046-0.371c-0.074-0.188-0.145-0.349-0.217-0.53l-0.79-2.22l0.166-0.804l-0.408-0.508l-0.096-0.348l-0.254-0.439l-0.111-0.576
			l-0.166-0.69l-0.054-0.719l-0.234-0.645l-0.022-0.091l-0.171-0.485l-0.137-0.342l-0.673-1.5l-0.291,1.05l0.431,0.792l0.077,0.304
			l0.094,0.324l0.097,0.251l0.095,0.32l0.128,0.103l0.256,0.542l0.029,0.559l0.213,0.924L14,55.876l0.031,0.627l0.283,0.554
			l0.094,0.479l0.12,0.416l0.504,1.592l1.361,2.703l0.199,0.6l0.22,0.251l0.576,0.667l0.573,0.605l0.313,0.576l0.388,0.233
			l0.356,0.548l0.311,0.462l0.268,0.256l0.428,0.44l0.166,0.228l0.243,0.165L20.58,67.369z M24.493,70.718l-0.359-0.559
			l-0.214-0.206l-0.245-0.113l-0.243-0.172l-0.357-0.331l-0.433-0.348l-0.288-0.348l-0.528-0.553l-0.285-0.417l-0.313,0.046v-0.029
			l-0.265,0.143l-0.288-0.113l-0.214,0.205l0.117,0.138l0.243,0.273l0.336,0.233l0.548,0.343l0.242,0.262l0.24,0.229l0.602,0.553
			l0.336,0.39l0.068,0.021l0.36,0.12l0.339,0.114l0.359,0.21l0.311,0.023l0.074,0.017L24.493,70.718z"/>
		<path fill="#22559C" d="M24.764,64.621l-0.186-0.457l-0.045-0.399l-0.174-0.479l-0.088-0.621l-0.214,0.183l-0.072,0.325
			l-0.167,0.251l-0.249,0.137l-0.097,0.234v0.415l-0.065,0.206l-0.123,0.189l-0.078,0.227l-0.159,0.349l-0.106,0.252l-0.297,0.369
			v0.689l-0.11,0.068v0.327l0.102,0.621l0.211,0.713l-0.006,0.143l0.128,0.461l0.293,0.435l0.051,0.324l0.031,0.298l0.083,0.331
			l0.197,0.296h0.1l0.02-0.246l-0.071-0.393l0.071-0.422l0.286-0.444l0.374-0.679l0.123-0.514v-0.023l0.117-0.051v-1.632
			l0.148-0.559l0.083-0.313h-0.028l-0.083-0.195V64.621z"/>
		<path fill="#22559C" d="M23.512,69.172l-0.028-1.249l0.143-1.09l0.216-1.146l0.28-2.173 M33.874,35.366h1.152v0.821h-4.338v1.163
			l-0.465,1.832l-0.476-1.832v-1.163h-4.221v-0.901c0,0,0.699,0.022,0.922,0c0.893,0.434,1.189,0.627,3.359,0.017
			c0.083-0.522,0.12-2.989,0.12-2.989h0.456c0,0,0.231,2.938,0.231,3.075c0.513,0.048,1.996,0.798,3.251-0.023H33.874z"/>
		<path fill="#22559C" d="M30.183,31.903c-0.214,0-0.391-0.174-0.391-0.387c0-0.217,0.177-0.388,0.391-0.388
			c0.213,0,0.391,0.171,0.391,0.388C30.574,31.729,30.396,31.903,30.183,31.903 M30.166,30.814c-0.411,0-0.75,0.342-0.75,0.758
			c0,0.419,0.339,0.753,0.75,0.753c0.419,0,0.758-0.333,0.758-0.753C30.924,31.157,30.585,30.814,30.166,30.814 M34.703,36.188
			l1.791,6.4c0,0,0.014,0.057,0.023,0.248c-0.065,0.208-2.218,2.512-4.46-0.003c-0.042-0.182-0.04-0.245-0.04-0.245l1.859-6.4h0.262
			l-1.839,6.451h1.879l0.08-6.451h0.159l0.078,6.451h1.697l-1.643-6.451H34.703z M26.444,36.188l1.785,6.4
			c0,0,0.014,0.057,0.023,0.248c-0.065,0.208-2.216,2.512-4.458-0.003c-0.048-0.182-0.037-0.245-0.037-0.245l1.851-6.4h0.265
			l-1.842,6.451h1.882l0.08-6.451h0.16l0.077,6.451h1.694l-1.64-6.451H26.444z M29.747,36.188h0.941v-0.821h-0.941V36.188z
			 M50.449,52.745c-0.159-0.753-0.376-0.634-1.049-0.491c-0.564,0-0.841-0.188-1.383-0.143c-1.01,0.068-1.561,0.531-2.641,0.565
			c-2.507-0.263-2.368-0.73-2.877-0.754c-0.497-0.022-0.773,0.16-1.244,0.233h-0.117c0.026-0.21,0.049-0.472-0.091-0.559
			c-0.26-0.188-0.562-0.142-0.825-0.073c0.286,0.097,0.679,0.16,0.542,0.376c-0.234,0.377-0.958,0.332-1.124,0.234l-0.254-0.165
			c-0.168,0-0.428-0.023-0.587,0.022c-0.128,0.051-0.234,0.143-0.308,0.262c-0.608,0-0.54-0.609-0.54-1.032
			c-0.254,0.49-0.254,0.748-0.068,1.266l0.471,0.395l-0.188,0.091l-0.394,0.166c0.253,0.21,0.419,0.234,0.792,0.285l-0.023,0.536
			l-0.094,0.165c0,0.423,0.071,0.514,0.442,0.702c0.633,0,1.266,0.091,1.475,0.769c0.587,0.469,0.821,0.868,1.078,1.569
			c0.143,0.092,0.263,0.182,0.357,0.28h-0.006c0.006,0,0.006,0,0.011,0c0.231,0.245,0.317,0.519,0.317,0.935l-0.049,0.28
			l-0.231,0.302c-0.116,0.149-0.213,0.383-0.185,0.479c0,0.04,0.068,0.063,0.257,0.063l0.185,0.023
			c0.208-0.144,0.283-0.326,0.4-0.543l-0.023-0.348l0.023-0.393l0.117-0.144l0.114,0.091v0.285L42.66,58.9
			c-0.211,0.461-0.419,0.649-0.354,0.745c0.074,0.048,0.285,0.023,0.61,0.023l0.16-0.324c0.143-0.383,0.031-0.753-0.017-1.153
			l0.137-0.513l0.074-0.468c0.65-0.068,1.249-0.188,1.725-0.308c0.741-0.126,0.476-0.884,2.344-1.05h0.021
			c0.143,0.633,0.425,1.01,0.656,1.569l0.165,0.188l0.023,0.233c-0.163,0.4-0.349,0.673-0.562,1.057l-0.254,0.084l-0.028,0.189
			l-0.137,0.188l0.137,0.217c0.259-0.028,0.401-0.028,0.632-0.194l0.117-0.183c0.331-0.445,0.303-0.564,0.303-1.128l0.237-0.418
			l0.236-0.325l0.134-0.136c0.083,0.097,0.177,0.194,0.26,0.297c0.211,0.514,0.376,1.078-0.068,1.591
			c-0.166,0.188-0.326,0.359-0.396,0.468l0.231,0.144l0.354,0.021c0.399-0.188,0.63-0.422,0.562-0.866
			c-0.094-0.349-0.163-0.634-0.188-0.981c0.14-0.468,0.14-0.537-0.091-1.004l0.065-0.309l0.026-0.377l0.071-0.599l0.023-0.587
			l0.068-0.701l0.117-0.377v-0.468l-0.042-0.234l-0.211-0.415l-0.143-0.195l0.188-0.114c0.283-0.051,0.328-0.028,0.468,0.234
			c0.188,1.146-0.071,2.55-0.282,3.696l-0.21,0.417c0.253,0.422,0.308,0.541,0.116,0.986v0.234l0.191,0.324
			c0.257-0.627,0.345-1.095,0.185-1.778C50.29,55.34,50.546,54.028,50.449,52.745 M35.111,57.85
			c0.022,0.086,0.168,0.229,0.105,0.279c-0.333-0.416-0.688-0.816-0.808-1.443c-0.037,0.058-0.017,0.178-0.074,0.212
			c-0.06-0.423-0.02-0.867,0.106-1.204c-0.083,0-0.186,0.274-0.211,0.108c0.143-0.177,0.188-0.444,0.248-0.701
			c-0.088,0.006-0.157,0.211-0.214,0.137c0.166-0.239,0.226-0.867,0-1.096c-0.017,0.058,0.043,0.189-0.034,0.178
			c-0.08-0.233-0.214-0.417-0.457-0.491c0.217,1.17-0.729,2.076,0.032,2.966c0.12,0.132,0.405,0.257,0.425,0.417
			c0.12,0.811-0.006,1.614,0.316,2.333c-0.262,0.302-0.054,0.673-0.245,1.056c-0.229,0.131-0.702,0.159-0.813-0.109
			c0.031-0.37,0.442-0.615,0.496-0.918c0.146-0.821-0.359-1.712-0.704-2.178c-0.565-0.206-0.855-0.861-1.415-0.954
			c0.02,0.485,0.371,0.633,0.213,1.056c-0.202,0.536-1.3,0.633-1.306,1.375c-0.037,0.108-0.216,0.085-0.248,0.211
			c0.074,0.114,0.206,0.177,0.211,0.359c-0.14,0.239-0.394,0.525-0.808,0.382c-0.04-0.513,0.081-0.741,0.134-1.197
			c0.103-0.16,0.3-0.257,0.431-0.389c0.168-0.177,0.824-0.804,0.844-1.026c0.063-0.609-0.853-0.719-0.984-1.307
			c-0.63,0.405-1.497,0.56-2.576,0.497c-0.028,1.129-0.159,2.196,0.177,3.143c-0.259,0.194-0.162,0.519-0.285,0.845
			c-0.245,0.131-0.63,0.118-0.847-0.04c0.108-0.291,0.197-0.604,0.493-0.703c-0.123-0.204,0.083-0.364,0.105-0.563
			c0.055-0.439-0.279-0.798-0.351-1.232c-0.014-0.103,0.043-0.229,0.037-0.324c-0.042-0.463-0.428-0.748-0.459-1.124
			c-0.373,0.234-1.152,0.107-1.272,0.53c-0.122,0.468,0.317,0.776,0.422,1.197c0.103-0.045,0.211-0.079,0.323-0.103
			c0.045,0.252,0.239,0.525,0.137,0.811c-0.536,0.04-0.567-0.416-0.947-0.531c-0.063-0.284-0.134-0.563-0.214-0.844
			c-0.08-0.268-0.271-0.621-0.213-0.85c0.042-0.143,0.402-0.406,0.533-0.524c0.191-0.195,0.408-0.331,0.527-0.571
			c-0.672-0.679-0.028-2.396-0.564-3.171c-0.111,0.16-0.223,0.079-0.32,0.147c-0.431,0.291-0.408,1.353-1.201,1.021
			c-0.34-0.456,0.054-1.078,0.074-1.837c0.003-0.086-0.048-0.17-0.034-0.245c0.034-0.228,0.194-0.383,0.174-0.564
			c-0.021-0.229-0.356-0.331-0.371-0.519c0.131-0.074,0.313,0.021,0.313,0.021s-0.103-0.13-0.054-0.272
			c0.157-0.041,0.325,0.193,0.496,0.313c1.326-0.679,2.575,0.535,3.143,1.334c0.182,0.252,0.282,0.576,0.49,0.811
			c0.354,0.388,1.053,0.548,1.837,0.495c0.651-0.039,1.099-0.232,1.589-0.348c0.673-0.164,1.227,0.075,1.617,0.313
			c0.259,0.155,0.439,0.406,0.639,0.424c0.237,0.017,0.439-0.172,0.668-0.138c0.641,0.091,0.807,0.931,1.198,1.369
			c0.031,0.165-0.089-0.046-0.103,0.074c0.091,0.193,0.273,0.501,0.208,0.741c0.003-0.068-0.069-0.228-0.105-0.148
			c0.065,0.866-0.514,2.002,0.14,2.51c-0.2,0.068-0.297-0.147-0.386-0.068c0.063,0.251,0.382,0.434,0.425,0.593
			C35.542,58.244,35.285,58.084,35.111,57.85L35.111,57.85z M21.268,46.808v0.113c0,12.36,7.093,22.45,15.892,22.594
			c0.071,0,0.16,0.012,0.16,0.012V46.808H21.268z"/>
		<path fill="#22559C" d="M37.496,24.403c-8.836,0-16.014,10.067-16.014,22.449c0,12.383,7.178,22.45,16.014,22.45
			c8.838,0,16.02-10.067,16.02-22.45C53.516,34.471,46.333,24.403,37.496,24.403 M37.496,69.777c-4.418,0-8.568-2.402-11.682-6.743
			c-3.097-4.329-4.803-10.072-4.803-16.182c0-6.107,1.706-11.851,4.803-16.175c3.114-4.349,7.267-6.746,11.682-6.746
			c4.418,0,8.567,2.396,11.681,6.746c3.101,4.324,4.806,10.067,4.806,16.175c0,6.109-1.706,11.853-4.806,16.182
			C46.063,67.375,41.914,69.777,37.496,69.777"/>
		<path fill="#22559C" d="M38.981,45.484c0.579,0,1.093,0.318,1.666,0.318c0.576,0,1.095-0.318,1.668-0.318
			c0.58,0,1.093,0.318,1.666,0.318c0.576,0,1.093-0.318,1.671-0.318c0.576,0,1.086,0.318,1.665,0.318
			c0.576,0,1.093-0.318,1.671-0.318c0.571,0,1.084,0.318,1.663,0.318c0.574,0,1.089-0.318,1.665-0.318
			c0.488,0,0.933,0.222,1.409,0.296c-0.005-0.177-0.014-0.336-0.02-0.508c-0.467-0.074-0.907-0.295-1.389-0.295
			c-0.576,0-1.091,0.318-1.665,0.318c-0.579,0-1.092-0.318-1.663-0.318c-0.579,0-1.095,0.318-1.671,0.318
			c-0.579,0-1.089-0.318-1.665-0.318c-0.579,0-1.096,0.318-1.671,0.318c-0.573,0-1.086-0.318-1.666-0.318
			c-0.573,0-1.092,0.318-1.668,0.318c-0.573,0-1.087-0.318-1.666-0.318c-0.573,0-1.089,0.318-1.662,0.318v0.506
			C37.892,45.802,38.408,45.484,38.981,45.484 M45.757,36.838c0-0.177-0.111-0.316-0.253-0.316c-0.141,0-0.254,0.14-0.254,0.316
			V37.3h0.507V36.838z M38.981,43.469c0.579,0,1.093,0.322,1.666,0.322c0.576,0,1.095-0.322,1.668-0.322
			c0.58,0,1.093,0.322,1.666,0.322c0.576,0,1.093-0.322,1.671-0.322c0.576,0,1.086,0.322,1.665,0.322
			c0.576,0,1.093-0.322,1.671-0.322c0.571,0,1.084,0.322,1.663,0.322c0.574,0,1.089-0.322,1.665-0.322
			c0.442,0,0.847,0.185,1.27,0.276c-0.014-0.177-0.031-0.342-0.057-0.514c-0.403-0.096-0.791-0.265-1.213-0.265
			c-0.576,0-1.091,0.32-1.665,0.32c-0.579,0-1.092-0.32-1.663-0.32c-0.579,0-1.095,0.32-1.671,0.32c-0.579,0-1.089-0.32-1.665-0.32
			c-0.579,0-1.096,0.32-1.671,0.32c-0.573,0-1.086-0.32-1.666-0.32c-0.573,0-1.092,0.32-1.668,0.32c-0.573,0-1.087-0.32-1.666-0.32
			c-0.573,0-1.089,0.32-1.662,0.32v0.504C37.892,43.791,38.408,43.469,38.981,43.469 M38.981,44.476
			c0.579,0,1.093,0.319,1.666,0.319c0.576,0,1.095-0.319,1.668-0.319c0.58,0,1.093,0.319,1.666,0.319
			c0.576,0,1.093-0.319,1.671-0.319c0.576,0,1.086,0.319,1.665,0.319c0.576,0,1.093-0.319,1.671-0.319
			c0.571,0,1.084,0.319,1.663,0.319c0.574,0,1.089-0.319,1.665-0.319c0.468,0,0.901,0.211,1.361,0.288
			c-0.014-0.168-0.028-0.339-0.043-0.511c-0.442-0.08-0.861-0.285-1.318-0.285c-0.576,0-1.091,0.325-1.665,0.325
			c-0.579,0-1.092-0.325-1.663-0.325c-0.579,0-1.095,0.325-1.671,0.325c-0.579,0-1.089-0.325-1.665-0.325
			c-0.579,0-1.096,0.325-1.671,0.325c-0.573,0-1.086-0.325-1.666-0.325c-0.573,0-1.092,0.325-1.668,0.325
			c-0.573,0-1.087-0.325-1.666-0.325c-0.573,0-1.089,0.325-1.662,0.325v0.501C37.892,44.794,38.408,44.476,38.981,44.476"/>
		<path fill="#22559C" d="M45.139,35.711h0.782c0.068,0,0.117,0.071,0.117,0.159c0,0.086-0.048,0.157-0.117,0.157h-0.782
			c-0.063,0-0.117-0.071-0.117-0.157C45.022,35.782,45.076,35.711,45.139,35.711 M45.532,35.232c0.166,0,0.3,0.134,0.3,0.268
			c0,0.072-0.038,0.1-0.086,0.211h-0.428c-0.054-0.108-0.083-0.134-0.083-0.2C45.236,35.366,45.37,35.232,45.532,35.232
			 M38.981,41.455c0.314,0,0.617,0.097,0.91,0.18l3.887-3.924c0,0,0.437-0.382,0.765-0.394h-0.055v-0.958h-0.253v-0.474h0.504v0.157
			h1.526v-0.157h0.511v0.474H46.52v0.952c0.048,0.006,0.071,0.006,0.071,0.006s0.377-0.028,0.759,0.422
			c0.359,0.433,2.935,2.98,3.91,3.941c0.346-0.091,0.691-0.226,1.058-0.226c0.34,0,0.665,0.112,0.993,0.208
			c-1.705-9.996-8.177-17.522-15.857-17.522c-0.032,0-0.02,0.028-0.137,0.028v17.608C37.889,41.777,38.408,41.455,38.981,41.455
			 M42.315,41.96c-0.573,0-1.089,0.319-1.665,0.319c-0.573,0-1.09-0.319-1.669-0.319c-0.573,0-1.089,0.319-1.662,0.319v0.502
			c0.573,0,1.089-0.319,1.662-0.319c0.579,0,1.093,0.319,1.669,0.319s1.092-0.319,1.665-0.319c0.58,0,1.093,0.319,1.666,0.319
			c0.579,0,1.093-0.319,1.668-0.319c0.579,0,1.089,0.319,1.663,0.319c0.582,0,1.095-0.319,1.677-0.319
			c0.571,0,1.084,0.319,1.663,0.319c0.574,0,1.092-0.319,1.668-0.319c0.396,0,0.765,0.154,1.146,0.251
			c-0.025-0.177-0.051-0.354-0.077-0.525c-0.351-0.094-0.701-0.228-1.07-0.228c-0.576,0-1.094,0.319-1.668,0.319
			c-0.579,0-1.092-0.319-1.663-0.319c-0.582,0-1.095,0.319-1.677,0.319c-0.574,0-1.083-0.319-1.663-0.319
			c-0.576,0-1.089,0.319-1.668,0.319C43.408,42.279,42.895,41.96,42.315,41.96 M52.32,45.985c-0.579,0-1.094,0.319-1.665,0.319
			c-0.579,0-1.095-0.319-1.669-0.319c-0.579,0-1.089,0.319-1.671,0.319c-0.573,0-1.089-0.319-1.665-0.319
			c-0.576,0-1.089,0.319-1.666,0.319c-0.576,0-1.089-0.319-1.668-0.319c-0.576,0-1.092,0.319-1.668,0.319
			c-0.573,0-1.087-0.319-1.666-0.319c-0.573,0-1.089,0.319-1.665,0.319v0.497h16.433c0-0.166-0.005-0.343-0.011-0.513
			C53.261,46.215,52.813,45.985,52.32,45.985"/>
	</g>
	<path fill="#FFDA1A" d="M29.544,24.271c-5.621,2.311-3.465,4.687-7.523,4.82c2.978,1.512,3.425-0.394,6.206-1.169
		c2.698-2.536,5.878-3.902,9.215-3.902c3.333,0,6.522,1.369,9.223,3.916c3.379,0.699,3.893-1.16,6.379,1.155
		c-1.166-3.576-3.14-1.809-6.223-4.233c-0.143-0.108-0.282-0.222-0.416-0.341c-0.029-0.023-0.06-0.051-0.086-0.078
		c-0.094-0.083-0.188-0.174-0.279-0.265l8.285-1.506l-8.813-1.6c5.63-2.313,3.468-4.686,7.532-4.826
		c-3.633-1.845-3.501,1.401-8.433,1.48l4.794-6.925l-7.364,5.094c2.347-5.613-0.858-5.767,1.919-8.736
		c-3.65,1.19-1.748,3.211-4.378,6.397c-0.131,0.166-0.273,0.325-0.422,0.479l-0.122,0.131l-1.506-8.285l-1.603,8.804
		c-2.313-5.618-4.686-3.462-4.828-7.526c-1.84,3.637,1.405,3.5,1.483,8.434l-6.925-4.792l5.096,7.353
		c-5.609-2.339-5.766,0.867-8.735-1.909c1.121,3.431,2.972,1.951,5.844,3.953c0.105,0.071,0.214,0.154,0.322,0.237
		c0.271,0.211,0.55,0.451,0.841,0.73l-8.288,1.506L29.544,24.271z"/>
</g>
<g>
	<g>
		<g>
			<path fill="#22559C" d="M89.827,37.414l2.484,0.788c-0.381,1.385-1.014,2.414-1.9,3.086c-0.886,0.672-2.01,1.008-3.372,1.008
				c-1.685,0-3.07-0.576-4.155-1.727c-1.085-1.151-1.627-2.725-1.627-4.722c0-2.112,0.545-3.753,1.636-4.921
				c1.091-1.168,2.525-1.753,4.302-1.753c1.553,0,2.813,0.459,3.783,1.376c0.577,0.542,1.01,1.321,1.298,2.337l-2.536,0.606
				c-0.15-0.658-0.463-1.177-0.939-1.558s-1.055-0.571-1.736-0.571c-0.94,0-1.704,0.338-2.29,1.013
				c-0.585,0.675-0.878,1.769-0.878,3.281c0,1.604,0.289,2.748,0.866,3.428c0.577,0.681,1.327,1.021,2.25,1.021
				c0.681,0,1.267-0.216,1.757-0.649C89.261,39.024,89.613,38.343,89.827,37.414z"/>
			<path fill="#22559C" d="M93.991,35.813c0-1.293,0.193-2.378,0.58-3.255c0.288-0.646,0.682-1.227,1.182-1.74
				c0.499-0.513,1.046-0.895,1.64-1.143c0.791-0.334,1.703-0.502,2.735-0.502c1.87,0,3.366,0.58,4.488,1.74
				c1.123,1.16,1.684,2.773,1.684,4.839c0,2.048-0.557,3.651-1.671,4.809c-1.114,1.157-2.603,1.735-4.467,1.735
				c-1.887,0-3.388-0.576-4.501-1.727C94.547,39.418,93.991,37.833,93.991,35.813z M96.631,35.726c0,1.437,0.332,2.526,0.996,3.268
				s1.506,1.112,2.527,1.112c1.021,0,1.86-0.368,2.515-1.104c0.655-0.736,0.982-1.84,0.982-3.312c0-1.454-0.319-2.539-0.957-3.254
				c-0.638-0.716-1.485-1.074-2.541-1.074c-1.056,0-1.907,0.362-2.553,1.086C96.954,33.174,96.631,34.266,96.631,35.726z"/>
			<path fill="#22559C" d="M108.309,42.08V29.39h5.393c1.356,0,2.342,0.114,2.956,0.342c0.615,0.228,1.107,0.634,1.476,1.216
				c0.369,0.583,0.554,1.25,0.554,2c0,0.953-0.28,1.739-0.84,2.359c-0.56,0.621-1.396,1.012-2.51,1.173
				c0.554,0.323,1.011,0.678,1.372,1.064c0.36,0.387,0.847,1.074,1.458,2.061l1.549,2.476h-3.064l-1.852-2.761
				c-0.658-0.987-1.108-1.609-1.351-1.866s-0.499-0.433-0.771-0.528s-0.701-0.143-1.29-0.143h-0.52v5.298H108.309z M110.871,34.757
				h1.896c1.229,0,1.997-0.052,2.303-0.156c0.306-0.104,0.545-0.283,0.719-0.537c0.173-0.253,0.259-0.571,0.259-0.952
				c0-0.427-0.114-0.771-0.342-1.034s-0.55-0.429-0.965-0.498c-0.208-0.029-0.831-0.043-1.87-0.043h-2V34.757z"/>
			<path fill="#22559C" d="M123.959,42.08V31.537h-3.766V29.39h10.085v2.147h-3.757V42.08H123.959z"/>
			<path fill="#22559C" d="M131.932,42.08V29.39h9.41v2.147h-6.848v2.813h6.371v2.138h-6.371v3.454h7.09v2.138H131.932z"/>
			<path fill="#22559C" d="M148.683,42.08V29.39h9.409v2.147h-6.847v2.813h6.371v2.138h-6.371v3.454h7.089v2.138H148.683z"/>
			<path fill="#22559C" d="M160.576,42.08V29.494h2.562v10.448h6.372v2.138H160.576z"/>
			<path fill="#22559C" d="M171.337,42.08V29.39h9.409v2.147h-6.847v2.813h6.371v2.138h-6.371v3.454h7.089v2.138H171.337z"/>
			<path fill="#22559C" d="M191.28,37.414l2.484,0.788c-0.381,1.385-1.014,2.414-1.899,3.086s-2.01,1.008-3.372,1.008
				c-1.685,0-3.07-0.576-4.155-1.727c-1.085-1.151-1.627-2.725-1.627-4.722c0-2.112,0.545-3.753,1.636-4.921
				s2.524-1.753,4.303-1.753c1.552,0,2.813,0.459,3.782,1.376c0.577,0.542,1.01,1.321,1.299,2.337l-2.536,0.606
				c-0.15-0.658-0.463-1.177-0.939-1.558s-1.055-0.571-1.735-0.571c-0.941,0-1.704,0.338-2.29,1.013
				c-0.586,0.675-0.879,1.769-0.879,3.281c0,1.604,0.289,2.748,0.866,3.428c0.577,0.681,1.327,1.021,2.251,1.021
				c0.681,0,1.267-0.216,1.757-0.649C190.715,39.024,191.067,38.343,191.28,37.414z"/>
			<path fill="#22559C" d="M198.82,42.08V31.537h-3.766V29.39h10.085v2.147h-3.757V42.08H198.82z"/>
			<path fill="#22559C" d="M205.953,35.813c0-1.293,0.193-2.378,0.58-3.255c0.288-0.646,0.683-1.227,1.182-1.74
				c0.499-0.513,1.046-0.895,1.641-1.143c0.79-0.334,1.702-0.502,2.735-0.502c1.869,0,3.365,0.58,4.488,1.74
				c1.122,1.16,1.684,2.773,1.684,4.839c0,2.048-0.558,3.651-1.671,4.809c-1.114,1.157-2.603,1.735-4.467,1.735
				c-1.887,0-3.388-0.576-4.501-1.727C206.51,39.418,205.953,37.833,205.953,35.813z M208.594,35.726
				c0,1.437,0.331,2.526,0.995,3.268c0.663,0.742,1.506,1.112,2.527,1.112s1.86-0.368,2.515-1.104
				c0.655-0.736,0.982-1.84,0.982-3.312c0-1.454-0.318-2.539-0.956-3.254c-0.638-0.716-1.484-1.074-2.541-1.074
				c-1.056,0-1.907,0.362-2.554,1.086S208.594,34.266,208.594,35.726z"/>
			<path fill="#22559C" d="M220.271,42.08V29.39h5.393c1.356,0,2.342,0.114,2.956,0.342c0.615,0.228,1.106,0.634,1.477,1.216
				c0.369,0.583,0.554,1.25,0.554,2c0,0.953-0.28,1.739-0.84,2.359c-0.56,0.621-1.396,1.012-2.511,1.173
				c0.555,0.323,1.012,0.678,1.372,1.064c0.361,0.387,0.848,1.074,1.459,2.061l1.55,2.476h-3.064l-1.853-2.761
				c-0.658-0.987-1.108-1.609-1.351-1.866s-0.499-0.433-0.771-0.528s-0.701-0.143-1.29-0.143h-0.52v5.298H220.271z M222.833,34.757
				h1.896c1.229,0,1.996-0.052,2.303-0.156c0.306-0.104,0.545-0.283,0.718-0.537c0.174-0.253,0.26-0.571,0.26-0.952
				c0-0.427-0.114-0.771-0.342-1.034s-0.55-0.429-0.965-0.498c-0.208-0.029-0.831-0.043-1.87-0.043h-2V34.757z"/>
			<path fill="#22559C" d="M244.509,42.08h-2.787l-1.108-2.883h-5.072l-1.048,2.883h-2.718l4.942-12.69h2.71L244.509,42.08z
				 M239.791,37.06l-1.748-4.709l-1.714,4.709H239.791z"/>
			<path fill="#22559C" d="M245.938,42.08V29.494h2.562v10.448h6.372v2.138H245.938z"/>
		</g>
		<g>
			<path fill="#22559C" d="M82.475,60.135v-9.632h4.271c0.858,0,1.511,0.087,1.958,0.26s0.804,0.479,1.071,0.916
				c0.267,0.438,0.401,0.922,0.401,1.452c0,0.684-0.222,1.26-0.664,1.729s-1.125,0.766-2.05,0.894
				c0.337,0.161,0.594,0.321,0.769,0.479c0.372,0.341,0.725,0.769,1.058,1.281l1.675,2.621h-1.603l-1.274-2.004
				c-0.373-0.578-0.679-1.021-0.92-1.327c-0.241-0.307-0.457-0.521-0.647-0.644c-0.19-0.123-0.384-0.208-0.581-0.257
				c-0.145-0.03-0.381-0.046-0.71-0.046H83.75v4.277H82.475z M83.75,54.754h2.74c0.583,0,1.038-0.061,1.367-0.181
				c0.328-0.12,0.578-0.313,0.749-0.578c0.17-0.266,0.256-0.553,0.256-0.864c0-0.455-0.165-0.83-0.496-1.123
				c-0.331-0.294-0.853-0.44-1.567-0.44H83.75V54.754z"/>
			<path fill="#22559C" d="M96.798,57.888l1.222,0.151c-0.193,0.714-0.55,1.268-1.071,1.662c-0.521,0.395-1.187,0.591-1.997,0.591
				c-1.021,0-1.83-0.313-2.428-0.942c-0.598-0.629-0.897-1.51-0.897-2.645c0-1.174,0.302-2.085,0.907-2.733
				C93.139,53.324,93.923,53,94.886,53c0.933,0,1.695,0.317,2.287,0.952s0.887,1.528,0.887,2.681c0,0.07-0.002,0.175-0.006,0.315
				H92.85c0.044,0.767,0.261,1.354,0.65,1.761s0.876,0.611,1.458,0.611c0.434,0,0.804-0.114,1.11-0.342S96.619,58.387,96.798,57.888
				z M92.916,55.976h3.896c-0.053-0.587-0.202-1.026-0.447-1.32c-0.377-0.455-0.865-0.684-1.465-0.684c-0.543,0-1,0.182-1.37,0.546
				C93.159,54.881,92.955,55.367,92.916,55.976z"/>
			<path fill="#22559C" d="M99.505,62.809v-9.651h1.077v0.906c0.254-0.354,0.541-0.62,0.861-0.798S102.151,53,102.606,53
				c0.595,0,1.121,0.153,1.577,0.459c0.456,0.307,0.799,0.739,1.032,1.298c0.232,0.559,0.348,1.171,0.348,1.837
				c0,0.714-0.128,1.356-0.384,1.928c-0.256,0.572-0.629,1.01-1.117,1.314s-1.002,0.456-1.541,0.456
				c-0.395,0-0.748-0.083-1.061-0.249c-0.313-0.167-0.571-0.377-0.772-0.631v3.396H99.505z M100.576,56.686
				c0,0.897,0.182,1.562,0.545,1.99c0.363,0.43,0.804,0.645,1.32,0.645c0.526,0,0.976-0.223,1.35-0.667s0.562-1.134,0.562-2.066
				c0-0.89-0.183-1.555-0.549-1.997s-0.803-0.664-1.311-0.664c-0.504,0-0.949,0.235-1.337,0.706
				C100.77,55.104,100.576,55.787,100.576,56.686z"/>
			<path fill="#22559C" d="M111.562,60.135v-1.025c-0.543,0.789-1.281,1.183-2.214,1.183c-0.412,0-0.796-0.078-1.153-0.236
				c-0.357-0.157-0.622-0.355-0.795-0.595c-0.173-0.238-0.295-0.53-0.365-0.877c-0.048-0.231-0.072-0.6-0.072-1.104v-4.323h1.183
				v3.87c0,0.617,0.024,1.033,0.072,1.248c0.074,0.312,0.232,0.556,0.473,0.732c0.241,0.178,0.539,0.267,0.894,0.267
				c0.354,0,0.688-0.091,0.999-0.273c0.311-0.182,0.531-0.429,0.66-0.742c0.129-0.313,0.194-0.768,0.194-1.363v-3.738h1.183v6.978
				H111.562z M109.078,52.29l0.874-1.84h1.551l-1.446,1.84H109.078z"/>
			<path fill="#22559C" d="M115.563,60.135h-1.097v-9.632h1.183v3.437c0.5-0.627,1.137-0.939,1.912-0.939
				c0.429,0,0.835,0.086,1.219,0.259c0.383,0.174,0.698,0.416,0.946,0.729s0.441,0.691,0.582,1.134s0.21,0.915,0.21,1.419
				c0,1.195-0.296,2.12-0.887,2.772s-1.301,0.979-2.128,0.979c-0.824,0-1.47-0.344-1.938-1.031V60.135z M115.549,56.594
				c0,0.836,0.114,1.44,0.342,1.813c0.372,0.608,0.876,0.913,1.511,0.913c0.517,0,0.963-0.225,1.34-0.674
				c0.376-0.449,0.565-1.118,0.565-2.007c0-0.911-0.181-1.584-0.542-2.018s-0.798-0.65-1.311-0.65c-0.517,0-0.963,0.225-1.34,0.674
				C115.738,55.095,115.549,55.744,115.549,56.594z"/>
			<path fill="#22559C" d="M121.929,60.135v-9.632h1.183v9.632H121.929z"/>
			<path fill="#22559C" d="M124.952,51.863v-1.36h1.183v1.36H124.952z M124.952,60.135v-6.978h1.183v6.978H124.952z"/>
			<path fill="#22559C" d="M132.487,57.579l1.163,0.151c-0.127,0.801-0.452,1.429-0.976,1.882s-1.167,0.68-1.928,0.68
				c-0.955,0-1.723-0.312-2.303-0.936c-0.58-0.624-0.871-1.519-0.871-2.685c0-0.753,0.125-1.412,0.375-1.978
				c0.25-0.564,0.63-0.988,1.14-1.271c0.51-0.282,1.065-0.423,1.666-0.423c0.758,0,1.377,0.191,1.859,0.574
				c0.482,0.384,0.791,0.928,0.926,1.633l-1.149,0.178c-0.11-0.469-0.304-0.821-0.582-1.058c-0.278-0.237-0.614-0.355-1.009-0.355
				c-0.596,0-1.08,0.214-1.452,0.641c-0.373,0.428-0.559,1.103-0.559,2.027c0,0.938,0.179,1.618,0.539,2.043
				s0.828,0.638,1.406,0.638c0.464,0,0.852-0.143,1.163-0.428C132.207,58.608,132.404,58.17,132.487,57.579z"/>
			<path fill="#22559C" d="M139.216,59.274c-0.438,0.372-0.86,0.635-1.265,0.788c-0.405,0.153-0.841,0.229-1.305,0.229
				c-0.767,0-1.355-0.187-1.767-0.562c-0.412-0.374-0.618-0.853-0.618-1.436c0-0.342,0.078-0.653,0.233-0.937
				c0.156-0.282,0.359-0.509,0.611-0.68s0.535-0.3,0.851-0.388c0.232-0.062,0.583-0.12,1.051-0.177
				c0.955-0.114,1.658-0.25,2.109-0.408c0.004-0.161,0.006-0.265,0.006-0.309c0-0.481-0.111-0.821-0.335-1.019
				c-0.302-0.267-0.751-0.4-1.347-0.4c-0.557,0-0.967,0.098-1.232,0.292c-0.265,0.195-0.461,0.54-0.588,1.035l-1.156-0.157
				c0.105-0.495,0.278-0.895,0.519-1.199c0.241-0.305,0.589-0.539,1.044-0.703S137.013,53,137.612,53c0.596,0,1.08,0.069,1.452,0.21
				c0.372,0.14,0.646,0.316,0.821,0.528c0.175,0.213,0.298,0.481,0.368,0.806c0.039,0.201,0.059,0.564,0.059,1.09v1.577
				c0,1.1,0.025,1.795,0.076,2.086c0.05,0.292,0.149,0.57,0.299,0.838h-1.235C139.329,59.89,139.251,59.603,139.216,59.274z
				 M139.117,56.633c-0.43,0.175-1.073,0.324-1.932,0.447c-0.486,0.069-0.83,0.148-1.032,0.236s-0.357,0.216-0.466,0.384
				c-0.11,0.169-0.165,0.356-0.165,0.563c0,0.314,0.12,0.578,0.358,0.788c0.238,0.21,0.587,0.315,1.047,0.315
				c0.456,0,0.861-0.1,1.216-0.299s0.615-0.473,0.782-0.818c0.127-0.267,0.19-0.661,0.19-1.183V56.633z"/>
			<path fill="#22559C" d="M145.647,55.443c0-1.599,0.43-2.85,1.288-3.755c0.858-0.904,1.967-1.356,3.324-1.356
				c0.889,0,1.69,0.213,2.404,0.638s1.259,1.017,1.633,1.777c0.375,0.76,0.563,1.621,0.563,2.585c0,0.977-0.197,1.851-0.592,2.621
				c-0.395,0.771-0.953,1.354-1.676,1.751s-1.502,0.595-2.339,0.595c-0.906,0-1.717-0.219-2.431-0.657
				c-0.714-0.438-1.255-1.035-1.623-1.793S145.647,56.289,145.647,55.443z M146.962,55.463c0,1.161,0.312,2.075,0.936,2.743
				c0.625,0.668,1.407,1.002,2.35,1.002c0.959,0,1.748-0.337,2.368-1.012c0.62-0.674,0.93-1.631,0.93-2.871
				c0-0.784-0.133-1.468-0.397-2.053c-0.266-0.585-0.652-1.038-1.163-1.36c-0.51-0.322-1.083-0.482-1.718-0.482
				c-0.902,0-1.679,0.31-2.329,0.93C147.287,52.979,146.962,54.014,146.962,55.463z"/>
			<path fill="#22559C" d="M156.338,60.135v-6.978h1.064v1.058c0.271-0.495,0.522-0.821,0.752-0.979
				c0.23-0.158,0.483-0.236,0.759-0.236c0.398,0,0.804,0.127,1.216,0.381l-0.407,1.097c-0.289-0.171-0.578-0.256-0.867-0.256
				c-0.259,0-0.491,0.078-0.697,0.233c-0.205,0.155-0.353,0.371-0.439,0.646c-0.132,0.421-0.197,0.881-0.197,1.38v3.653H156.338z"/>
			<path fill="#22559C" d="M160.838,51.863v-1.36h1.183v1.36H160.838z M160.838,60.135v-6.978h1.183v6.978H160.838z"/>
			<path fill="#22559C" d="M168.597,57.888l1.223,0.151c-0.193,0.714-0.55,1.268-1.071,1.662s-1.187,0.591-1.997,0.591
				c-1.021,0-1.83-0.313-2.428-0.942s-0.896-1.51-0.896-2.645c0-1.174,0.302-2.085,0.906-2.733c0.604-0.647,1.389-0.972,2.353-0.972
				c0.933,0,1.694,0.317,2.286,0.952c0.591,0.635,0.887,1.528,0.887,2.681c0,0.07-0.002,0.175-0.007,0.315h-5.203
				c0.044,0.767,0.261,1.354,0.65,1.761s0.876,0.611,1.459,0.611c0.434,0,0.804-0.114,1.11-0.342S168.417,58.387,168.597,57.888z
				 M164.714,55.976h3.896c-0.053-0.587-0.201-1.026-0.447-1.32c-0.376-0.455-0.864-0.684-1.465-0.684c-0.543,0-1,0.182-1.37,0.546
				C164.958,54.881,164.754,55.367,164.714,55.976z"/>
			<path fill="#22559C" d="M171.304,60.135v-6.978h1.064v0.992c0.513-0.767,1.253-1.149,2.221-1.149c0.421,0,0.808,0.075,1.16,0.227
				c0.353,0.15,0.616,0.349,0.791,0.595c0.176,0.245,0.298,0.536,0.368,0.873c0.044,0.22,0.065,0.603,0.065,1.15v4.29h-1.183v-4.244
				c0-0.482-0.046-0.842-0.138-1.081c-0.092-0.238-0.255-0.429-0.489-0.571s-0.51-0.214-0.824-0.214
				c-0.504,0-0.938,0.16-1.305,0.479c-0.365,0.32-0.549,0.927-0.549,1.82v3.811H171.304z"/>
			<path fill="#22559C" d="M181.369,59.077l0.171,1.045c-0.333,0.069-0.631,0.104-0.894,0.104c-0.429,0-0.762-0.067-0.998-0.203
				c-0.237-0.136-0.403-0.314-0.5-0.536c-0.096-0.221-0.145-0.687-0.145-1.396v-4.015h-0.867v-0.92h0.867V51.43l1.177-0.71v2.438
				h1.188v0.92h-1.188v4.08c0,0.337,0.021,0.554,0.062,0.65c0.042,0.097,0.11,0.173,0.204,0.229
				c0.094,0.058,0.229,0.086,0.404,0.086C180.981,59.123,181.155,59.107,181.369,59.077z"/>
			<path fill="#22559C" d="M187.079,59.274c-0.438,0.372-0.86,0.635-1.265,0.788c-0.405,0.153-0.841,0.229-1.305,0.229
				c-0.767,0-1.355-0.187-1.768-0.562c-0.411-0.374-0.617-0.853-0.617-1.436c0-0.342,0.077-0.653,0.233-0.937
				c0.155-0.282,0.358-0.509,0.61-0.68s0.536-0.3,0.852-0.388c0.231-0.062,0.582-0.12,1.051-0.177
				c0.955-0.114,1.658-0.25,2.109-0.408c0.004-0.161,0.006-0.265,0.006-0.309c0-0.481-0.111-0.821-0.335-1.019
				c-0.302-0.267-0.751-0.4-1.347-0.4c-0.557,0-0.967,0.098-1.231,0.292c-0.266,0.195-0.461,0.54-0.588,1.035l-1.157-0.157
				c0.105-0.495,0.278-0.895,0.52-1.199s0.589-0.539,1.045-0.703c0.455-0.164,0.983-0.246,1.583-0.246
				c0.596,0,1.08,0.069,1.452,0.21c0.372,0.14,0.646,0.316,0.821,0.528c0.175,0.213,0.298,0.481,0.368,0.806
				c0.039,0.201,0.059,0.564,0.059,1.09v1.577c0,1.1,0.025,1.795,0.076,2.086c0.05,0.292,0.149,0.57,0.299,0.838h-1.235
				C187.192,59.89,187.114,59.603,187.079,59.274z M186.98,56.633c-0.43,0.175-1.073,0.324-1.932,0.447
				c-0.486,0.069-0.83,0.148-1.032,0.236c-0.201,0.088-0.356,0.216-0.466,0.384c-0.109,0.169-0.164,0.356-0.164,0.563
				c0,0.314,0.119,0.578,0.357,0.788c0.239,0.21,0.588,0.315,1.048,0.315c0.456,0,0.861-0.1,1.216-0.299s0.615-0.473,0.782-0.818
				c0.127-0.267,0.19-0.661,0.19-1.183V56.633z"/>
			<path fill="#22559C" d="M189.982,60.135v-9.632h1.183v9.632H189.982z"/>
			<path fill="#22559C" d="M201.265,60.135v-0.881c-0.442,0.692-1.093,1.038-1.951,1.038c-0.557,0-1.068-0.153-1.534-0.459
				c-0.467-0.307-0.828-0.735-1.084-1.285c-0.257-0.55-0.385-1.182-0.385-1.896c0-0.696,0.116-1.328,0.349-1.896
				c0.231-0.567,0.58-1.002,1.044-1.304c0.465-0.303,0.983-0.453,1.558-0.453c0.42,0,0.795,0.088,1.123,0.266
				c0.329,0.178,0.596,0.408,0.802,0.693v-3.456h1.176v9.632H201.265z M197.526,56.652c0,0.894,0.188,1.562,0.564,2.004
				s0.821,0.664,1.334,0.664c0.517,0,0.956-0.212,1.317-0.634c0.361-0.423,0.542-1.068,0.542-1.936c0-0.955-0.184-1.655-0.552-2.103
				c-0.368-0.446-0.821-0.67-1.36-0.67c-0.525,0-0.965,0.215-1.317,0.644C197.702,55.052,197.526,55.729,197.526,56.652z"/>
			<path fill="#22559C" d="M208.997,57.888l1.223,0.151c-0.193,0.714-0.55,1.268-1.071,1.662s-1.187,0.591-1.997,0.591
				c-1.021,0-1.83-0.313-2.428-0.942s-0.896-1.51-0.896-2.645c0-1.174,0.302-2.085,0.906-2.733c0.604-0.647,1.389-0.972,2.353-0.972
				c0.933,0,1.694,0.317,2.286,0.952c0.591,0.635,0.887,1.528,0.887,2.681c0,0.07-0.002,0.175-0.007,0.315h-5.203
				c0.044,0.767,0.261,1.354,0.65,1.761s0.876,0.611,1.459,0.611c0.434,0,0.804-0.114,1.11-0.342S208.817,58.387,208.997,57.888z
				 M205.114,55.976h3.896c-0.053-0.587-0.201-1.026-0.447-1.32c-0.376-0.455-0.864-0.684-1.465-0.684c-0.543,0-1,0.182-1.37,0.546
				C205.358,54.881,205.154,55.367,205.114,55.976z"/>
			<path fill="#22559C" d="M211.678,60.135v-9.632h1.183v9.632H211.678z"/>
			<path fill="#22559C" d="M224.903,50.503h1.274v5.564c0,0.969-0.109,1.737-0.328,2.307s-0.614,1.032-1.186,1.39
				c-0.572,0.356-1.322,0.535-2.251,0.535c-0.902,0-1.64-0.155-2.214-0.466c-0.574-0.312-0.983-0.762-1.229-1.351
				s-0.368-1.394-0.368-2.415v-5.564h1.274v5.559c0,0.836,0.078,1.453,0.233,1.85s0.423,0.701,0.802,0.916s0.842,0.322,1.39,0.322
				c0.938,0,1.605-0.213,2.004-0.638s0.598-1.241,0.598-2.45V50.503z"/>
			<path fill="#22559C" d="M228.137,60.135v-6.978h1.064v1.058c0.271-0.495,0.522-0.821,0.752-0.979
				c0.23-0.158,0.483-0.236,0.759-0.236c0.398,0,0.804,0.127,1.216,0.381l-0.407,1.097c-0.289-0.171-0.578-0.256-0.867-0.256
				c-0.259,0-0.491,0.078-0.697,0.233c-0.205,0.155-0.353,0.371-0.439,0.646c-0.132,0.421-0.197,0.881-0.197,1.38v3.653H228.137z"/>
			<path fill="#22559C" d="M237.203,60.135v-1.025c-0.543,0.789-1.281,1.183-2.214,1.183c-0.412,0-0.797-0.078-1.153-0.236
				c-0.357-0.157-0.622-0.355-0.795-0.595c-0.173-0.238-0.295-0.53-0.365-0.877c-0.048-0.231-0.072-0.6-0.072-1.104v-4.323h1.183
				v3.87c0,0.617,0.024,1.033,0.072,1.248c0.075,0.312,0.232,0.556,0.474,0.732c0.24,0.178,0.538,0.267,0.894,0.267
				c0.354,0,0.688-0.091,0.998-0.273c0.312-0.182,0.531-0.429,0.661-0.742c0.129-0.313,0.193-0.768,0.193-1.363v-3.738h1.183v6.978
				H237.203z"/>
			<path fill="#22559C" d="M239.896,60.713l1.15,0.171c0.048,0.354,0.182,0.613,0.4,0.775c0.293,0.219,0.694,0.328,1.202,0.328
				c0.548,0,0.971-0.109,1.269-0.328s0.499-0.525,0.604-0.92c0.061-0.241,0.09-0.747,0.085-1.518
				c-0.517,0.608-1.16,0.913-1.932,0.913c-0.959,0-1.701-0.346-2.228-1.038c-0.525-0.692-0.788-1.522-0.788-2.49
				c0-0.666,0.12-1.28,0.361-1.843s0.59-0.998,1.048-1.305c0.458-0.306,0.995-0.459,1.613-0.459c0.823,0,1.502,0.332,2.037,0.998
				v-0.841h1.09v6.031c0,1.086-0.11,1.856-0.331,2.31c-0.222,0.453-0.572,0.812-1.052,1.074s-1.069,0.395-1.771,0.395
				c-0.832,0-1.505-0.188-2.018-0.563C240.127,62.03,239.879,61.466,239.896,60.713z M240.876,56.521
				c0,0.915,0.182,1.583,0.545,2.004c0.363,0.42,0.819,0.631,1.367,0.631c0.543,0,0.998-0.21,1.366-0.628s0.552-1.074,0.552-1.968
				c0-0.854-0.189-1.498-0.568-1.932s-0.836-0.65-1.37-0.65c-0.525,0-0.972,0.214-1.34,0.641S240.876,55.681,240.876,56.521z"/>
			<path fill="#22559C" d="M252.17,60.135v-1.025c-0.543,0.789-1.281,1.183-2.214,1.183c-0.412,0-0.797-0.078-1.153-0.236
				c-0.357-0.157-0.622-0.355-0.795-0.595c-0.173-0.238-0.295-0.53-0.365-0.877c-0.048-0.231-0.072-0.6-0.072-1.104v-4.323h1.183
				v3.87c0,0.617,0.024,1.033,0.072,1.248c0.075,0.312,0.232,0.556,0.474,0.732c0.24,0.178,0.538,0.267,0.894,0.267
				c0.354,0,0.688-0.091,0.998-0.273c0.312-0.182,0.531-0.429,0.661-0.742c0.129-0.313,0.193-0.768,0.193-1.363v-3.738h1.183v6.978
				H252.17z"/>
			<path fill="#22559C" d="M259.634,59.274c-0.438,0.372-0.86,0.635-1.265,0.788c-0.405,0.153-0.841,0.229-1.305,0.229
				c-0.767,0-1.355-0.187-1.768-0.562c-0.411-0.374-0.617-0.853-0.617-1.436c0-0.342,0.077-0.653,0.233-0.937
				c0.155-0.282,0.358-0.509,0.61-0.68s0.536-0.3,0.852-0.388c0.231-0.062,0.582-0.12,1.051-0.177
				c0.955-0.114,1.658-0.25,2.109-0.408c0.004-0.161,0.006-0.265,0.006-0.309c0-0.481-0.111-0.821-0.335-1.019
				c-0.302-0.267-0.751-0.4-1.347-0.4c-0.557,0-0.967,0.098-1.231,0.292c-0.266,0.195-0.461,0.54-0.588,1.035l-1.157-0.157
				c0.105-0.495,0.278-0.895,0.52-1.199s0.589-0.539,1.045-0.703c0.455-0.164,0.983-0.246,1.583-0.246
				c0.596,0,1.08,0.069,1.452,0.21c0.372,0.14,0.646,0.316,0.821,0.528c0.175,0.213,0.298,0.481,0.368,0.806
				c0.039,0.201,0.059,0.564,0.059,1.09v1.577c0,1.1,0.025,1.795,0.076,2.086c0.05,0.292,0.149,0.57,0.299,0.838h-1.235
				C259.747,59.89,259.669,59.603,259.634,59.274z M259.535,56.633c-0.43,0.175-1.073,0.324-1.932,0.447
				c-0.486,0.069-0.83,0.148-1.032,0.236c-0.201,0.088-0.356,0.216-0.466,0.384c-0.109,0.169-0.164,0.356-0.164,0.563
				c0,0.314,0.119,0.578,0.357,0.788c0.239,0.21,0.588,0.315,1.048,0.315c0.456,0,0.861-0.1,1.216-0.299s0.615-0.473,0.782-0.818
				c0.127-0.267,0.19-0.661,0.19-1.183V56.633z"/>
			<path fill="#22559C" d="M262.511,62.822l-0.131-1.11c0.258,0.069,0.483,0.104,0.677,0.104c0.263,0,0.473-0.044,0.631-0.131
				c0.157-0.088,0.286-0.211,0.388-0.368c0.074-0.118,0.194-0.412,0.361-0.881c0.021-0.065,0.057-0.162,0.104-0.289l-2.647-6.99
				h1.274l1.452,4.041c0.188,0.512,0.357,1.051,0.506,1.616c0.136-0.543,0.298-1.073,0.486-1.59l1.491-4.067h1.183l-2.654,7.096
				c-0.284,0.767-0.506,1.294-0.663,1.584c-0.211,0.39-0.451,0.675-0.723,0.857c-0.272,0.182-0.596,0.272-0.973,0.272
				C263.046,62.967,262.791,62.918,262.511,62.822z"/>
		</g>
	</g>
</g>
</svg>
